<svg width="55" height="55" viewBox="0 0 55 55" fill="none" xmlns="http://www.w3.org/2000/svg">
<path d="M38.7517 19.4982C42.664 19.4982 45.8355 16.5133 45.8355 12.8312C45.8355 9.14902 42.664 6.16406 38.7517 6.16406C34.8395 6.16406 31.668 9.14902 31.668 12.8312C31.668 16.5133 34.8395 19.4982 38.7517 19.4982Z" stroke="#36C5F3" stroke-width="2" stroke-miterlimit="10" stroke-linecap="round" stroke-linejoin="round"/>
<path d="M12.0838 31.999C15.996 31.999 19.1676 29.014 19.1676 25.3319C19.1676 21.6498 15.996 18.6648 12.0838 18.6648C8.17152 18.6648 5 21.6498 5 25.3319C5 29.014 8.17152 31.999 12.0838 31.999Z" stroke="#36C5F3" stroke-width="2" stroke-miterlimit="10" stroke-linecap="round" stroke-linejoin="round"/>
<path d="M38.7517 46.1666C42.664 46.1666 45.8355 42.9951 45.8355 39.0828C45.8355 35.1705 42.664 31.999 38.7517 31.999C34.8395 31.999 31.668 35.1705 31.668 39.0828C31.668 42.9951 34.8395 46.1666 38.7517 46.1666Z" stroke="#36C5F3" stroke-width="2" stroke-miterlimit="10" stroke-linecap="round" stroke-linejoin="round"/>
<path d="M31.6688 35.3326L19.168 29.4989" stroke="#36C5F3" stroke-width="2" stroke-miterlimit="10" stroke-linecap="round" stroke-linejoin="round"/>
<path d="M31.6688 15.3313L19.168 21.165" stroke="#36C5F3" stroke-width="2" stroke-miterlimit="10" stroke-linecap="round" stroke-linejoin="round"/>
</svg>
