<svg width="183" height="59" viewBox="0 0 183 59" fill="none" xmlns="http://www.w3.org/2000/svg">
<path d="M22.847 19.2955L19.0168 24.1606C18.6067 24.6928 18.4254 25.3096 18.5301 25.854L23.5635 50.3995C23.787 51.4806 25.0249 52.0069 26.3517 51.589L36.9838 48.332" fill="white"/>
<path d="M22.847 19.2955L19.0168 24.1606C18.6067 24.6928 18.4254 25.3096 18.5301 25.854L23.5635 50.3995C23.787 51.4806 25.0249 52.0069 26.3517 51.589L36.9838 48.332" stroke="#0B344E" stroke-width="1.5" stroke-miterlimit="10" stroke-linecap="round" stroke-linejoin="round"/>
<path d="M30.4619 13.3501L24.6333 12.9448C24.1142 12.9124 23.6566 13.2726 23.5818 13.7725L21.3446 27.8672C21.2561 28.4094 21.4049 28.9696 21.7541 29.4036L37.3534 48.7855C38.0363 49.634 39.296 49.7765 40.1527 49.1022L55.7293 36.8409C56.586 36.1665 56.7282 34.9205 56.0453 34.0719L40.446 14.69C40.0968 14.2561 39.5781 13.9871 39.024 13.9507L33.1604 13.5414" fill="white"/>
<path d="M30.4619 13.3501L24.6333 12.9448C24.1142 12.9124 23.6566 13.2726 23.5818 13.7725L21.3446 27.8672C21.2561 28.4094 21.4049 28.9696 21.7541 29.4036L37.3534 48.7855C38.0363 49.634 39.296 49.7765 40.1527 49.1022L55.7293 36.8409C56.586 36.1665 56.7282 34.9205 56.0453 34.0719L40.446 14.69C40.0968 14.2561 39.5781 13.9871 39.024 13.9507L33.1604 13.5414" stroke="#0B344E" stroke-width="1.5" stroke-miterlimit="10" stroke-linecap="round" stroke-linejoin="round"/>
<path d="M34.0966 33.2965C32.9359 34.2101 31.2302 34.0183 30.3061 32.8701C29.382 31.7219 29.5756 30.035 30.7364 29.1213C31.8971 28.2077 33.6028 28.3995 34.5269 29.5477C35.451 30.6959 35.2574 32.3828 34.0966 33.2965Z" stroke="#0B344E" stroke-width="1.5" stroke-miterlimit="10" stroke-linecap="round" stroke-linejoin="round"/>
<path d="M44.5675 32.8456C43.4068 33.7592 41.7013 33.5676 40.7774 32.4197C39.8535 31.2718 40.0473 29.5851 41.208 28.6714C42.3687 27.7578 44.0743 27.9494 44.9982 29.0973C45.922 30.2452 45.7282 31.9319 44.5675 32.8456Z" stroke="#0B344E" stroke-width="1.5" stroke-miterlimit="10" stroke-linecap="round" stroke-linejoin="round"/>
<path d="M39.1958 39.021L36.1068 22.9449" stroke="#0B344E" stroke-width="1.5" stroke-miterlimit="10" stroke-linecap="round" stroke-linejoin="round"/>
<path d="M21.1938 19.079C20.3013 18.6387 19.4827 18.015 18.8194 17.1909C16.436 14.2296 16.9323 9.90947 19.9267 7.55242C22.921 5.19538 27.2894 5.68621 29.6727 8.64752C32.0561 11.6088 31.5598 15.9289 28.5654 18.286" stroke="#0B344E" stroke-width="1.5" stroke-miterlimit="10" stroke-linecap="round" stroke-linejoin="round"/>
<path d="M114.842 26.8616C117.661 23.9749 115.628 19.1392 111.574 19.0528C112.709 15.2039 108.642 11.8485 105.025 13.6496C104.226 9.71437 99.0498 8.62878 96.6798 11.8855C94.1226 8.77682 89.0333 10.1955 88.472 14.1677C84.7423 12.601 80.9004 16.1908 82.2725 19.9657C78.2309 20.2988 76.5096 25.2579 79.5033 27.9595C76.0854 30.1183 76.8838 35.2995 80.8006 36.3111C78.7798 39.7899 81.9107 44.0212 85.865 43.1083C85.7028 47.1299 90.4553 49.4121 93.5364 46.7968C95.2702 50.436 100.559 50.2756 102.056 46.5377C105.287 48.968 109.89 46.3897 109.478 42.3805C113.482 43.0466 116.339 38.6303 114.106 35.2872C117.923 34.0166 118.384 28.7984 114.842 26.8616Z" fill="white" stroke="#0B344E" stroke-width="1.5" stroke-miterlimit="10" stroke-linecap="round" stroke-linejoin="round"/>
<path d="M91.8032 28.712C93.7322 28.712 95.2959 27.1655 95.2959 25.2579C95.2959 23.3502 93.7322 21.8038 91.8032 21.8038C89.8743 21.8038 88.3105 23.3502 88.3105 25.2579C88.3105 27.1655 89.8743 28.712 91.8032 28.712Z" stroke="#0B344E" stroke-width="1.5" stroke-miterlimit="10" stroke-linecap="round" stroke-linejoin="round"/>
<path d="M101.782 37.594C99.8483 37.594 98.2891 36.052 98.2891 34.1399C98.2891 32.2278 99.8483 30.6858 101.782 30.6858C103.715 30.6858 105.274 32.2278 105.274 34.1399C105.274 36.052 103.715 37.594 101.782 37.594Z" stroke="#0B344E" stroke-width="1.5" stroke-miterlimit="10" stroke-linecap="round" stroke-linejoin="round"/>
<path d="M90.3057 37.594L103.278 21.8038" stroke="#0B344E" stroke-width="1.5" stroke-miterlimit="10" stroke-linecap="round" stroke-linejoin="round"/>
<path d="M162.936 48.1511C162.451 47.287 162.769 46.1873 163.643 45.7074C164.516 45.2275 165.628 45.5418 166.114 46.4059L169.291 44.6608C168.806 43.7967 169.123 42.697 169.997 42.2171C170.871 41.7372 171.983 42.0516 172.468 42.9157L175.646 41.1705C175.16 40.3064 175.478 39.2068 176.352 38.7268C177.226 38.2469 178.338 38.5613 178.823 39.4254L182 37.6803L161.707 1.54449L158.53 3.28963C159.015 4.15375 158.697 5.25341 157.823 5.73332C156.95 6.21323 155.838 5.89889 155.352 5.03477L152.175 6.77991C152.66 7.64402 152.342 8.74368 151.469 9.2236C150.595 9.70351 149.483 9.38916 148.998 8.52505L145.82 10.2702C146.306 11.1343 145.988 12.234 145.114 12.7139C144.24 13.1938 143.128 12.8794 142.643 12.0153L139.466 13.7605L159.759 49.8962L162.936 48.1511Z" fill="white" stroke="#0B344E" stroke-width="1.5" stroke-miterlimit="10" stroke-linecap="round" stroke-linejoin="round"/>
<path d="M172.027 32.8784L167.261 35.4961" stroke="#0B344E" stroke-width="1.5" stroke-miterlimit="10" stroke-linecap="round" stroke-linejoin="round"/>
<path d="M177.588 29.8246L173.616 32.006" stroke="#0B344E" stroke-width="1.5" stroke-miterlimit="10" stroke-linecap="round" stroke-linejoin="round"/>
<path d="M165.674 36.3689L160.908 38.9866" stroke="#0B344E" stroke-width="1.5" stroke-miterlimit="10" stroke-linecap="round" stroke-linejoin="round"/>
<path d="M159.318 39.8591L155.347 42.0405" stroke="#0B344E" stroke-width="1.5" stroke-miterlimit="10" stroke-linecap="round" stroke-linejoin="round"/>
<path d="M157.557 18.2141C158.288 19.5156 159.948 19.9848 161.264 19.2619C162.58 18.539 163.054 16.8979 162.323 15.5964C161.593 14.2948 159.933 13.8257 158.617 14.5485C157.301 15.2714 156.827 16.9125 157.557 18.2141Z" stroke="#0B344E" stroke-width="1.5" stroke-miterlimit="10" stroke-linecap="round" stroke-linejoin="round"/>
<path d="M155.173 28.7741C154.439 27.4681 154.912 25.8339 156.232 25.1086C157.553 24.3833 159.205 24.8504 159.939 26.1564C160.672 27.4624 160.2 29.0966 158.879 29.822C157.559 30.5473 155.906 30.0801 155.173 28.7741Z" stroke="#0B344E" stroke-width="1.5" stroke-miterlimit="10" stroke-linecap="round" stroke-linejoin="round"/>
<path d="M149.962 20.3296L167.533 24.0412" stroke="#0B344E" stroke-width="1.5" stroke-miterlimit="10" stroke-linecap="round" stroke-linejoin="round"/>
</svg>
