<svg width="80" height="80" viewBox="0 0 80 80" fill="none" xmlns="http://www.w3.org/2000/svg">
<path d="M52.538 41.2619C52.538 48.5004 46.7563 54.2913 39.5292 54.2913C32.3021 54.2913 26.5205 48.5004 26.5205 41.2619C26.5205 34.0233 32.3021 28.2324 39.5292 28.2324" stroke="#3B475A" stroke-width="2" stroke-miterlimit="10" stroke-linecap="round" stroke-linejoin="round"/>
<path d="M63.6199 30.8869C66.5108 37.4017 66.5108 45.1228 63.6199 51.6376C60.7291 57.911 55.6702 62.978 49.4067 65.8734C42.9023 68.7689 35.1933 68.7689 28.689 65.8734C22.4255 62.978 17.3666 57.911 14.4757 51.6376C11.5849 45.1228 11.5849 37.4017 14.4757 30.8869C17.3666 24.6135 22.4255 19.5465 28.689 16.6511C35.1933 13.7556 42.9023 13.7556 49.4067 16.6511" stroke="#3B475A" stroke-width="2" stroke-miterlimit="10" stroke-linecap="round" stroke-linejoin="round"/>
<path d="M39.2891 41.2621L51.3342 29.1978" stroke="#3B475A" stroke-width="2" stroke-miterlimit="10" stroke-linecap="round" stroke-linejoin="round"/>
<path d="M68.1972 19.5462L58.5611 29.1976H51.334V21.9591L60.9701 12.3076V19.5462H68.1972Z" stroke="#3B475A" stroke-width="2" stroke-miterlimit="10" stroke-linecap="round" stroke-linejoin="round"/>
</svg>
