<svg width="785" height="261" viewBox="0 0 785 261" fill="none" xmlns="http://www.w3.org/2000/svg">
<g clip-path="url(#clip0_5_59)">
<path d="M118.968 159.291C113.061 159.296 107.195 158.3 101.621 156.345L101.206 156.2L101.548 154.601C91.4591 134.841 94.9429 107.681 110.447 85.3488C124.551 65.0324 146.031 50.2424 164.981 37.196C167.313 35.5897 170.072 34.7159 172.904 34.6864C175.736 34.6569 178.512 35.473 180.878 37.0303C183.243 38.5876 185.09 40.8153 186.183 43.4284C187.275 46.0414 187.563 48.9209 187.009 51.6984L180.31 85.3229C175.433 109.808 169.634 132.979 152.471 147.384C143.01 155.097 131.174 159.303 118.968 159.291Z" fill="#6C63FF"/>
<path d="M106.09 241.404C102.582 215.852 98.9738 189.968 101.44 164.142C103.625 141.205 110.623 118.806 124.87 100.432C132.432 90.6998 141.634 82.3611 152.062 75.791C154.78 74.0755 157.283 78.3833 154.576 80.0922C136.533 91.4947 122.577 108.333 114.72 128.178C106.043 150.247 104.65 174.305 106.145 197.748C107.048 211.926 108.968 226.01 110.896 240.077C111.048 240.713 110.953 241.384 110.63 241.952C110.307 242.521 109.78 242.946 109.155 243.141C108.518 243.313 107.839 243.226 107.266 242.9C106.692 242.574 106.27 242.036 106.091 241.401L106.09 241.404Z" fill="#3F3D56"/>
<path d="M163.443 218.198C156.998 218.182 150.656 216.574 144.982 213.517C139.308 210.46 134.477 206.049 130.917 200.676L130.674 200.307L131.647 199.482C134.574 183.389 148.752 169.019 167.823 162.838C185.154 157.22 204.352 158.138 221.284 158.952C223.393 159.053 225.423 159.78 227.116 161.042C228.809 162.303 230.087 164.041 230.786 166.032C231.486 168.024 231.575 170.179 231.043 172.222C230.511 174.265 229.381 176.103 227.798 177.5L208.879 194.205C195.085 206.388 181.335 217.389 164.811 218.173C164.355 218.189 163.897 218.198 163.443 218.198Z" fill="#6C63FF"/>
<path d="M96.1756 256.093C113.061 226.216 132.645 193.011 167.642 182.397C177.372 179.457 187.575 178.403 197.7 179.294C200.892 179.569 200.095 184.488 196.91 184.214C179.936 182.805 162.996 187.287 148.94 196.905C135.414 206.112 124.882 218.912 115.969 232.485C110.509 240.8 105.618 249.467 100.727 258.122C99.1648 260.889 94.5946 258.891 96.1756 256.093Z" fill="#3F3D56"/>
<path d="M269.826 216.504C267.245 216.506 264.681 216.071 262.245 215.216L261.83 215.071L262.009 214.235C257.664 205.622 259.189 193.835 265.916 184.144C272.032 175.333 281.326 168.934 289.524 163.29C290.578 162.564 291.824 162.17 293.102 162.156C294.381 162.143 295.635 162.512 296.703 163.215C297.771 163.918 298.605 164.924 299.099 166.104C299.592 167.284 299.722 168.584 299.472 169.839L296.581 184.351C294.465 194.971 291.947 205.023 284.469 211.299C280.335 214.67 275.161 216.509 269.826 216.504Z" fill="#6C63FF"/>
<path d="M264.268 251.66C262.755 240.631 261.197 229.46 262.261 218.314C263.205 208.414 266.225 198.746 272.374 190.816C275.638 186.616 279.609 183.017 284.11 180.181C285.283 179.441 286.363 181.3 285.195 182.038C277.408 186.959 271.384 194.226 267.993 202.792C264.248 212.317 263.647 222.7 264.292 232.818C264.682 238.937 265.51 245.016 266.343 251.087C266.408 251.362 266.367 251.651 266.228 251.897C266.088 252.142 265.861 252.326 265.591 252.41C265.316 252.484 265.023 252.446 264.776 252.306C264.528 252.165 264.346 251.933 264.269 251.659L264.268 251.66Z" fill="#3F3D56"/>
<path d="M289.023 241.928C286.194 241.921 283.411 241.216 280.92 239.874C278.429 238.533 276.309 236.596 274.746 234.238L274.504 233.869L275.038 233.415C276.36 226.408 282.536 220.167 290.825 217.48C298.355 215.04 306.665 215.437 314 215.79C314.966 215.836 315.897 216.169 316.673 216.748C317.449 217.326 318.035 218.122 318.355 219.035C318.676 219.948 318.717 220.936 318.473 221.872C318.229 222.809 317.711 223.651 316.986 224.292L308.82 231.502C302.827 236.795 296.85 241.575 289.627 241.917C289.425 241.924 289.224 241.928 289.023 241.928Z" fill="#6C63FF"/>
<path d="M259.989 258C267.277 245.105 275.73 230.773 290.834 226.193C295.034 224.924 299.437 224.469 303.807 224.853C305.185 224.972 304.841 227.095 303.466 226.977C296.14 226.369 288.829 228.303 282.762 232.454C276.924 236.428 272.379 241.953 268.532 247.81C266.175 251.399 264.065 255.14 261.954 258.875C261.279 260.07 259.307 259.207 259.989 258Z" fill="#3F3D56"/>
<path d="M691.193 215.537C682.545 215.537 675.953 210.867 671.178 201.421C666.601 192.364 671.348 184.545 677.696 181.112C684.058 177.672 693.219 177.981 698.298 186.785C703.248 195.364 703.816 204.256 699.987 213.216L700.176 214.096L699.727 214.225C696.957 215.058 694.085 215.5 691.193 215.537Z" fill="#6C63FF"/>
<path d="M699.732 259.66C704.154 234.646 704.433 202.965 679.889 188.182C678.717 187.441 677.637 189.3 678.805 190.038C702.502 204.37 701.798 234.977 697.657 259.087C697.592 259.359 697.636 259.645 697.778 259.885C697.92 260.124 698.149 260.3 698.418 260.374C698.687 260.448 698.974 260.415 699.219 260.281C699.464 260.148 699.647 259.925 699.731 259.659L699.732 259.66Z" fill="#3F3D56"/>
<path d="M586.91 239.958C583.82 239.874 580.787 239.11 578.026 237.72C571.068 234.455 570.312 227.596 572.553 222.605C574.77 217.67 580.341 213.724 587.335 216.727C590.465 217.975 593.247 219.961 595.444 222.516C597.64 225.072 599.185 228.121 599.948 231.403L600.518 231.885L600.237 232.262C596.408 237.402 592.004 239.958 586.91 239.958Z" fill="#6C63FF"/>
<path d="M620.011 258C611.302 241.328 597.394 222.473 576.192 224.854C574.815 224.972 575.159 227.095 576.534 226.977C596.673 224.893 609.776 243.005 618.046 258.876C618.721 260.07 620.693 259.207 620.011 258Z" fill="#3F3D56"/>
<path d="M784 260.841H1.00003C0.734814 260.841 0.480459 260.736 0.292923 260.548C0.105387 260.361 3.05176e-05 260.106 3.05176e-05 259.841C3.05176e-05 259.576 0.105387 259.322 0.292923 259.134C0.480459 258.947 0.734814 258.841 1.00003 258.841H784C784.265 258.841 784.52 258.947 784.707 259.134C784.895 259.322 785 259.576 785 259.841C785 260.106 784.895 260.361 784.707 260.548C784.52 260.736 784.265 260.841 784 260.841Z" fill="#CACACA"/>
<path d="M596 194.841H335C334.735 194.841 334.48 194.736 334.293 194.548C334.105 194.361 334 194.106 334 193.841C334 193.576 334.105 193.322 334.293 193.134C334.48 192.947 334.735 192.841 335 192.841H596C596.265 192.841 596.52 192.947 596.707 193.134C596.895 193.322 597 193.576 597 193.841C597 194.106 596.895 194.361 596.707 194.548C596.52 194.736 596.265 194.841 596 194.841Z" fill="#CACACA"/>
<path d="M474 25L471 23C470.837 22.5433 468.861 22.3572 468.5 22.0341C468.139 21.711 463.472 20.6107 463 20.5C462.528 20.3893 459.467 19.8713 459 20C458.533 20.1287 455 19.491 453 19.491C451 19.491 451.5 19.491 446 19.491C439.167 18.5936 436.06 19.3454 426.194 19.491C423.5 18.5335 421.5 19 421.5 19C420.5 18.6882 418.19 19 417.5 19C417 19 413.471 18.6303 413 18.5C411 18.5 408.937 18.4451 408.5 18.5C407 18.6884 404.155 19.7813 403.5 20C399.94 21.1884 400.569 20.3879 397.5 22.0335C385.785 28.3164 382.928 31.9846 377.232 43.9963C371.536 56.0079 369.838 69.5284 372.387 82.5755C374.936 95.6226 381.598 107.51 391.396 116.495C401.194 125.479 413.612 131.088 426.831 132.5C440.05 133.912 453.373 131.051 464.847 124.338C476.321 117.625 485.343 107.412 490.59 95.1976C495.836 82.9829 497.031 69.4087 494 56.4651C490.969 43.5216 484.125 33.615 474 25Z" fill="#3F3D56"/>
<path d="M476.953 113.739C527.368 107.272 555.728 189.506 474.396 194.088C469.406 199.563 430.293 204.141 397.146 196.582C367.393 197.774 333.571 158.856 375.279 105.776L476.953 113.739Z" fill="#3F3D56"/>
<path d="M426.623 156.172V197.774H446.073L461.505 155.413" fill="#3F3D56"/>
<path d="M496.101 183.744C495.994 183.591 495.916 183.43 495.823 183.273C494.995 183.303 494.166 183.334 493.338 183.365L496.101 183.744Z" fill="#3F3D56"/>
<path d="M572.736 159.706C566.527 149.783 551.335 147.025 542.035 154.134C537.838 157.342 535.01 161.98 531.424 165.859C525.392 172.343 517.348 176.601 508.594 177.941C502.5 178.855 496.055 178.359 490.428 180.868C484.97 183.301 480.853 190.247 483.824 195.273C504.771 194.501 525.718 193.729 546.665 192.957C552.691 192.735 558.932 192.46 564.321 189.753C574.781 184.498 578.945 169.63 572.736 159.706Z" fill="#3F3D56"/>
<path d="M424.092 130.961C415.488 131.04 406.961 129.338 399.046 125.963C382.521 118.79 374.947 106.685 374.633 106.173C374.53 106.002 374.498 105.796 374.545 105.602C374.592 105.408 374.714 105.24 374.885 105.135C375.055 105.03 375.26 104.997 375.455 105.043C375.65 105.088 375.819 105.209 375.925 105.379C381.912 113.881 390.156 120.54 399.727 124.605C414.608 131.039 440.02 134.262 476.572 113.083C476.658 113.033 476.753 113 476.852 112.987C476.951 112.973 477.051 112.98 477.148 113.005C477.244 113.031 477.335 113.075 477.414 113.136C477.493 113.196 477.559 113.272 477.609 113.358C477.659 113.444 477.692 113.54 477.705 113.638C477.718 113.737 477.712 113.838 477.686 113.934C477.66 114.03 477.616 114.121 477.555 114.2C477.495 114.279 477.419 114.345 477.333 114.395C455.876 126.828 438.16 130.961 424.092 130.961Z" fill="white"/>
<path d="M427.381 92.4741C425.974 92.4725 424.625 91.9127 423.63 90.9176C422.634 89.9225 422.075 88.5733 422.073 87.1659C422.074 86.9655 422.154 86.7736 422.297 86.6322C422.439 86.4909 422.631 86.4115 422.831 86.4115C423.032 86.4115 423.224 86.4909 423.366 86.6322C423.508 86.7736 423.589 86.9655 423.59 87.1659C423.591 88.1704 423.991 89.1332 424.702 89.843C425.413 90.5527 426.377 90.9513 427.381 90.9513C428.386 90.9513 429.349 90.5527 430.06 89.843C430.771 89.1332 431.171 88.1704 431.173 87.1659C431.174 86.9655 431.254 86.7736 431.396 86.6322C431.538 86.4909 431.731 86.4115 431.931 86.4115C432.131 86.4115 432.324 86.4909 432.466 86.6322C432.608 86.7736 432.688 86.9655 432.689 87.1659C432.688 88.5732 432.128 89.9224 431.133 90.9176C430.138 91.9127 428.788 92.4725 427.381 92.4741Z" fill="white"/>
<path d="M427.76 80.0203C431.111 80.0203 433.827 78.9756 433.827 77.687C433.827 76.3984 431.111 75.3538 427.76 75.3538C424.41 75.3538 421.694 76.3984 421.694 77.687C421.694 78.9756 424.41 80.0203 427.76 80.0203Z" fill="white"/>
<path d="M386.969 77.8581C388.705 75.7799 390.876 74.1081 393.329 72.961C395.782 71.8138 398.457 71.2193 401.165 71.2193C403.873 71.2193 406.548 71.8138 409.001 72.961C411.454 74.1081 413.625 75.7799 415.361 77.8581C418.302 75.0505 420.344 71.4338 421.23 67.4654C422.115 63.497 421.804 59.3551 420.336 55.5635C418.867 51.7719 416.308 48.5008 412.98 46.164C409.653 43.8273 405.707 42.5296 401.642 42.4353C397.577 42.3409 393.575 43.4541 390.143 45.634C386.711 47.814 384.002 50.9627 382.359 54.6821C380.717 58.4015 380.214 62.5245 380.914 66.5297C381.615 70.535 383.487 74.2425 386.295 77.1836C386.514 77.4136 386.739 77.6385 386.969 77.8581Z" fill="white"/>
<path d="M442.477 77.8581C444.213 75.7799 446.384 74.1081 448.837 72.961C451.289 71.8138 453.964 71.2192 456.672 71.2192C459.38 71.2192 462.055 71.8138 464.508 72.961C466.961 74.1081 469.132 75.7799 470.868 77.8581C473.809 75.0505 475.851 71.4338 476.737 67.4654C477.622 63.497 477.311 59.3551 475.843 55.5635C474.375 51.7719 471.815 48.5008 468.487 46.164C465.16 43.8272 461.214 42.5296 457.149 42.4353C453.084 42.3409 449.083 43.4541 445.65 45.634C442.218 47.8139 439.509 50.9627 437.867 54.6821C436.224 58.4014 435.721 62.5245 436.421 66.5297C437.122 70.5349 438.994 74.2425 441.802 77.1835C442.022 77.4136 442.246 77.6385 442.477 77.8581Z" fill="white"/>
<path d="M392.152 72.0594C396.058 72.0594 399.224 68.8932 399.224 64.9876C399.224 61.0819 396.058 57.9158 392.152 57.9158C388.246 57.9158 385.08 61.0819 385.08 64.9876C385.08 68.8932 388.246 72.0594 392.152 72.0594Z" fill="#3F3D56"/>
<path d="M447.657 72.0594C451.563 72.0594 454.729 68.8932 454.729 64.9876C454.729 61.0819 451.563 57.9158 447.657 57.9158C443.751 57.9158 440.585 61.0819 440.585 64.9876C440.585 68.8932 443.751 72.0594 447.657 72.0594Z" fill="#3F3D56"/>
<path d="M457.334 92.8234C460.756 92.8234 463.531 90.0489 463.531 86.6265C463.531 83.2041 460.756 80.4297 457.334 80.4297C453.912 80.4297 451.137 83.2041 451.137 86.6265C451.137 90.0489 453.912 92.8234 457.334 92.8234Z" fill="#FF6584"/>
<path d="M401.334 92.8234C404.756 92.8234 407.531 90.0489 407.531 86.6265C407.531 83.2041 404.756 80.4297 401.334 80.4297C397.912 80.4297 395.137 83.2041 395.137 86.6265C395.137 90.0489 397.912 92.8234 401.334 92.8234Z" fill="#FF6584"/>
<path d="M335.111 193.524C337.599 191.973 335.844 184.666 331.191 177.202C326.538 169.739 320.75 164.946 318.262 166.497C315.774 168.048 317.529 175.355 322.182 182.819C326.835 190.282 332.623 195.075 335.111 193.524Z" fill="#3F3D56"/>
<path d="M360.474 142.389L326.686 177.977L335.496 193.148L367.393 174.088" fill="#3F3D56"/>
<path d="M419.561 208.215C419.991 205.315 413.286 201.92 404.586 200.632C395.886 199.345 388.485 200.651 388.056 203.551C387.627 206.451 394.331 209.846 403.031 211.134C411.731 212.422 419.132 211.115 419.561 208.215Z" fill="#3F3D56"/>
<path d="M397.024 155.777L402.261 204.569L419.496 208.148L425.659 171.033" fill="#3F3D56"/>
<path d="M473.068 207.213C481.812 206.267 488.645 203.137 488.33 200.223C488.014 197.308 480.67 195.712 471.927 196.658C463.183 197.604 456.35 200.734 456.665 203.648C456.981 206.563 464.325 208.159 473.068 207.213Z" fill="#3F3D56"/>
<path d="M453.303 155.154L470.666 201.051L488.247 200.172L484.859 162.701" fill="#3F3D56"/>
</g>
<defs>
<clipPath id="clip0_5_59">
<rect width="785" height="260.841" fill="white"/>
</clipPath>
</defs>
</svg>
