<svg width="231" height="41" viewBox="0 0 231 41" fill="none" xmlns="http://www.w3.org/2000/svg">
<g clip-path="url(#clip0_1476_5286)">
<path d="M13.5488 21.5637C13.5488 16.6321 17.1295 13.2477 21.6779 13.2477C24.2424 13.2477 26.1779 14.3597 27.5327 16.1002L26.3714 16.8255C25.3553 15.4234 23.6133 14.5047 21.6779 14.5047C17.9521 14.5531 15.0004 17.4057 15.0004 21.5637C15.0004 25.7217 17.9521 28.6226 21.6779 28.6226C23.6133 28.6226 25.3553 27.704 26.3714 26.3019L27.5327 27.0271C26.0811 28.7677 24.194 29.8797 21.6779 29.8797C17.1295 29.8797 13.5488 26.4953 13.5488 21.5637Z" fill="#0B344E"/>
<path d="M29.1299 29.5896V13.5378H30.3879V29.5896H29.1299Z" fill="#0B344E"/>
<path d="M40.9848 29.5896V27.8974C40.0654 28.9611 38.4686 29.8797 36.7751 29.8797C34.4041 29.8797 33.0977 28.7677 33.0977 26.1569V17.9859H34.3557V25.8668C34.3557 28.1392 35.4686 28.7677 37.1622 28.7677C38.6622 28.7677 40.1622 27.8974 40.9364 26.8337V17.9859H42.1944V29.5896H40.9848Z" fill="#0B344E"/>
<path d="M45 29.5896V13.5378H46.2581V19.8231C47.1774 18.5177 48.6774 17.6474 50.3226 17.6474C53.4194 17.6474 55.5 20.0649 55.5 23.7394C55.5 27.4623 53.371 29.8314 50.3226 29.8314C48.5806 29.8314 47.0806 28.9127 46.2581 27.704V29.5413H45V29.5896ZM50.0806 28.7677C52.6935 28.7677 54.1452 26.6403 54.1452 23.7878C54.1452 20.9352 52.6935 18.8078 50.0806 18.8078C48.4839 18.8078 46.9355 19.8231 46.2581 20.9352V26.6887C46.9355 27.8007 48.4839 28.7677 50.0806 28.7677Z" fill="#0B344E"/>
<path d="M56.9521 23.7878C56.9521 20.4033 59.3231 17.6958 62.5167 17.6958C66.0489 17.6958 67.9844 20.5 67.9844 23.8361V24.1745H58.2586C58.3554 26.6887 60.0489 28.8161 62.807 28.8161C64.2586 28.8161 65.6134 28.2842 66.6296 27.2205L67.2586 28.0425C66.0973 29.2512 64.6457 29.9281 62.7102 29.9281C59.3715 29.8797 56.9521 27.3656 56.9521 23.7878ZM62.5167 18.7594C59.7586 18.7594 58.4038 21.1769 58.307 23.2076H66.7747C66.7747 21.2253 65.4683 18.7594 62.5167 18.7594Z" fill="#0B344E"/>
<path d="M87.8709 18.0342H85.3548L85.0161 15.8101C84.6774 15.4717 84.2903 15.23 83.758 15.0366C83.2742 14.8432 82.6451 14.7465 81.9677 14.7465C80.5161 14.7465 79.4032 15.2783 78.5806 16.342C77.758 17.4057 77.4193 18.7594 77.4193 20.5V21.0802C77.4193 22.7724 77.8064 24.1745 78.5806 25.2382C79.3548 26.3019 80.4677 26.8337 81.9193 26.8337C82.5967 26.8337 83.1774 26.737 83.7096 26.5436C84.2419 26.3502 84.6774 26.1085 84.9677 25.77L85.3064 23.546H87.8225V26.8821C87.1451 27.6557 86.2742 28.2842 85.258 28.7677C84.1935 29.2512 83.0322 29.4446 81.7258 29.4446C79.5 29.4446 77.6129 28.671 76.2096 27.1238C74.758 25.5766 74.0322 23.546 74.0322 21.1285V20.5483C74.0322 18.1309 74.758 16.1002 76.1613 14.5531C77.6129 13.0059 79.4516 12.184 81.7258 12.184C83.0322 12.184 84.1935 12.4257 85.258 12.9092C86.3225 13.3927 87.1451 14.0212 87.8709 14.7948V18.0342Z" fill="#36C5F3"/>
<path d="M89.4673 22.8208C89.4673 20.9835 89.9996 19.4363 91.0157 18.2759C92.0319 17.0672 93.4835 16.487 95.3222 16.487C97.1609 16.487 98.6125 17.0672 99.6286 18.2759C100.645 19.4363 101.177 20.9835 101.177 22.8691V23.1109C101.177 24.9965 100.645 26.4953 99.6286 27.704C98.5641 28.8644 97.1609 29.4929 95.3222 29.4929C93.4835 29.4929 92.0318 28.9127 90.9673 27.704C89.9028 26.5436 89.4189 24.9965 89.4189 23.1109V22.8208H89.4673ZM92.806 23.0625C92.806 24.1745 92.9996 25.0932 93.3867 25.8184C93.7738 26.4953 94.4512 26.8337 95.3222 26.8337C96.1931 26.8337 96.8222 26.4953 97.2093 25.8184C97.5964 25.1415 97.7899 24.2229 97.7899 23.1109V22.8691C97.7899 21.7571 97.5964 20.8384 97.1609 20.1616C96.7738 19.4847 96.0964 19.0979 95.2254 19.0979C94.3544 19.0979 93.7254 19.4363 93.2899 20.1616C92.9028 20.8384 92.7093 21.7571 92.7093 22.8691V23.0625H92.806Z" fill="#36C5F3"/>
<path d="M102.436 27.1238L104.033 26.7854V19.0495L102.242 18.7111V16.6804H107.178L107.323 18.4693C107.758 17.8408 108.242 17.3573 108.871 16.9705C109.5 16.6321 110.178 16.4387 110.903 16.4387C112.162 16.4387 113.129 16.8255 113.855 17.6474C114.581 18.421 114.92 19.678 114.92 21.3703V26.7854L116.516 27.1238V29.1545H110.081V27.1238L111.533 26.7854V21.3703C111.533 20.5483 111.387 19.9198 111.049 19.5813C110.71 19.2429 110.178 19.0495 109.5 19.0495C109.065 19.0495 108.678 19.1462 108.291 19.3396C107.952 19.533 107.662 19.7747 107.42 20.1132V26.7854L108.774 27.1238V29.1545H102.436V27.1238Z" fill="#36C5F3"/>
<path d="M127.742 20.9835H125.467L125.129 19.4363C124.887 19.2429 124.596 19.0979 124.258 18.9528C123.919 18.8078 123.532 18.7594 123.096 18.7594C122.516 18.7594 122.032 18.9045 121.693 19.1462C121.354 19.388 121.161 19.7264 121.161 20.1615C121.161 20.5483 121.306 20.8384 121.645 21.0802C121.983 21.3219 122.612 21.5637 123.629 21.7571C125.177 22.0472 126.338 22.5306 127.064 23.1108C127.79 23.691 128.177 24.513 128.177 25.5766C128.177 26.6887 127.693 27.6073 126.725 28.3325C125.758 29.0578 124.5 29.3962 122.903 29.3962C121.935 29.3962 121.064 29.2512 120.242 28.9611C119.419 28.671 118.742 28.2842 118.112 27.7523L118.064 24.9481H120.435L120.919 26.592C121.112 26.737 121.403 26.8821 121.742 26.9788C122.08 27.0755 122.467 27.0755 122.806 27.0755C123.483 27.0755 124.016 26.9304 124.354 26.6887C124.693 26.4469 124.887 26.1085 124.887 25.6733C124.887 25.2865 124.693 24.9965 124.354 24.7064C124.016 24.4163 123.338 24.2229 122.371 23.9811C120.919 23.691 119.806 23.2559 119.032 22.6273C118.306 22.0472 117.919 21.2252 117.919 20.2099C117.919 19.1462 118.354 18.2759 119.225 17.5023C120.096 16.7288 121.306 16.3903 122.903 16.3903C123.871 16.3903 124.79 16.5354 125.661 16.7771C126.532 17.0189 127.209 17.3573 127.693 17.7924L127.742 20.9835Z" fill="#36C5F3"/>
<path d="M138.387 27.559C138 28.1391 137.516 28.5743 136.887 28.9127C136.306 29.2512 135.629 29.3962 134.855 29.3962C133.548 29.3962 132.532 28.9611 131.758 28.1391C131.032 27.3172 130.645 26.0118 130.645 24.2229V19.0495L129.29 18.7111V16.6804H130.645H134.032V24.2229C134.032 25.1415 134.177 25.77 134.467 26.1568C134.758 26.5436 135.242 26.737 135.822 26.737C136.355 26.737 136.79 26.6403 137.177 26.4953C137.564 26.3019 137.903 26.0601 138.145 25.77V19.0495L136.693 18.7111V16.6804H138.145H141.532V26.7854L143.032 27.1238V29.1545H138.58L138.387 27.559Z" fill="#36C5F3"/>
<path d="M143.951 13.1993V11.1686H149.129V26.7854L150.774 27.1238V29.1545H144.145V27.1238L145.79 26.7854V13.5861L143.951 13.1993Z" fill="#36C5F3"/>
<path d="M151.984 27.1238L153.629 26.7854V19.0495H151.79V16.6804H153.629V15.2783C153.629 13.8762 154.016 12.8125 154.838 12.0389C155.661 11.2653 156.774 10.9269 158.226 10.9269C158.516 10.9269 158.806 10.9269 159.096 10.9752C159.387 11.0236 159.726 11.0719 160.064 11.1686L159.774 13.6828C159.58 13.6344 159.387 13.6344 159.242 13.5861C159.048 13.5861 158.855 13.5377 158.661 13.5377C158.129 13.5377 157.693 13.6828 157.403 13.9729C157.113 14.263 156.967 14.6981 156.967 15.2783V16.6804H159.435V19.0495H156.967V26.7854L158.613 27.1238V29.1545H151.984V27.1238Z" fill="#36C5F3"/>
<path d="M168.484 29.1545C168.387 28.9611 168.29 28.7193 168.242 28.5259C168.193 28.3325 168.097 28.0908 168.097 27.8491C167.709 28.3325 167.226 28.671 166.645 28.9611C166.064 29.2512 165.435 29.3962 164.661 29.3962C163.451 29.3962 162.484 29.0578 161.758 28.3809C161.032 27.704 160.693 26.8337 160.693 25.6734C160.693 24.513 161.177 23.5943 162.097 22.9658C163.016 22.3373 164.419 21.9988 166.209 21.9988H167.903V20.7901C167.903 20.2099 167.709 19.7264 167.371 19.388C167.032 19.0495 166.5 18.9045 165.822 18.9045C165.435 18.9045 165.097 18.9528 164.806 19.0495C164.516 19.1462 164.274 19.2429 164.08 19.388L163.839 20.7417H161.322V17.9859C161.951 17.5507 162.629 17.2123 163.451 16.9222C164.226 16.6321 165.097 16.487 166.064 16.487C167.613 16.487 168.871 16.8738 169.839 17.5991C170.806 18.3726 171.29 19.4363 171.29 20.8384V25.9634C171.29 26.1568 171.29 26.3502 171.29 26.4953C171.29 26.6403 171.29 26.8337 171.339 26.9788L172.355 27.1238V29.1545H168.484ZM165.532 26.8821C166.016 26.8821 166.5 26.7854 166.935 26.5436C167.371 26.3019 167.661 26.0601 167.903 25.7217V23.8361H166.209C165.484 23.8361 164.951 23.9811 164.564 24.3196C164.177 24.658 164.032 25.0448 164.032 25.5283C164.032 25.9634 164.177 26.3019 164.419 26.4953C164.709 26.7854 165.048 26.8821 165.532 26.8821Z" fill="#36C5F3"/>
<path d="M173.709 27.1238L175.306 26.7854V19.0495L173.516 18.7111V16.6804H178.451L178.596 18.5177C178.887 17.8892 179.274 17.3573 179.709 17.0189C180.193 16.6804 180.725 16.487 181.306 16.487C181.499 16.487 181.693 16.487 181.887 16.5354C182.08 16.5837 182.225 16.5837 182.37 16.6321L182.032 19.6781L180.629 19.6297C180.145 19.6297 179.709 19.7264 179.419 19.9198C179.08 20.1132 178.838 20.4033 178.693 20.7417V26.7854L180.29 27.1238V29.1545H173.709V27.1238Z" fill="#36C5F3"/>
<path d="M182.951 18.7111V16.6804H187.887L188.032 18.3243C188.419 17.7441 188.951 17.2606 189.532 16.9222C190.112 16.5837 190.838 16.4387 191.612 16.4387C192.435 16.4387 193.112 16.6321 193.645 16.9705C194.225 17.3089 194.661 17.8408 194.951 18.566C195.338 17.8891 195.822 17.3573 196.451 17.0188C197.08 16.6321 197.806 16.4387 198.629 16.4387C199.838 16.4387 200.806 16.8738 201.532 17.6957C202.258 18.566 202.596 19.8231 202.596 21.5637V26.737L204.241 27.0755V29.1061H197.806V27.0755L199.258 26.737V21.612C199.258 20.645 199.112 20.0165 198.774 19.6297C198.483 19.2429 198 19.0979 197.419 19.0979C196.935 19.0979 196.548 19.1946 196.161 19.4363C195.822 19.6297 195.532 19.9198 195.338 20.3066C195.338 20.4516 195.338 20.5967 195.338 20.6934C195.338 20.7901 195.338 20.8868 195.338 21.0318V26.8337L196.693 27.1722V29.2028H190.645V27.1722L192 26.8337V21.612C192 20.6934 191.854 20.0648 191.516 19.678C191.225 19.2913 190.741 19.0979 190.112 19.0979C189.677 19.0979 189.241 19.1946 188.903 19.3396C188.564 19.533 188.274 19.7747 188.032 20.0648V26.7854L189.483 27.1238V29.1545H183.048V27.1238L184.693 26.7854V19.0495L182.951 18.7111Z" fill="#36C5F3"/>
<path d="M213.145 29.1545C213.048 28.9611 212.951 28.7193 212.903 28.5259C212.854 28.3325 212.758 28.0908 212.758 27.8491C212.371 28.3325 211.887 28.671 211.306 28.9611C210.725 29.2512 210.096 29.3962 209.322 29.3962C208.113 29.3962 207.145 29.0578 206.419 28.3809C205.693 27.704 205.354 26.8337 205.354 25.6734C205.354 24.513 205.838 23.5943 206.758 22.9658C207.677 22.3373 209.08 21.9988 210.871 21.9988H212.564V20.7901C212.564 20.2099 212.371 19.7264 212.032 19.388C211.693 19.0495 211.161 18.9045 210.484 18.9045C210.096 18.9045 209.758 18.9528 209.467 19.0495C209.177 19.1462 208.935 19.2429 208.742 19.388L208.5 20.7417H205.984V17.9859C206.613 17.5507 207.29 17.2123 208.113 16.9222C208.887 16.6321 209.758 16.487 210.725 16.487C212.274 16.487 213.532 16.8738 214.5 17.5991C215.467 18.3726 215.951 19.4363 215.951 20.8384V25.9634C215.951 26.1568 215.951 26.3502 215.951 26.4953C215.951 26.6403 215.951 26.8337 216 26.9788L217.016 27.1238V29.1545H213.145ZM210.242 26.8821C210.725 26.8821 211.209 26.7854 211.645 26.5436C212.08 26.3019 212.371 26.0601 212.613 25.7217V23.8361H210.919C210.193 23.8361 209.661 23.9811 209.274 24.3196C208.887 24.658 208.742 25.0448 208.742 25.5283C208.742 25.9634 208.887 26.3019 209.129 26.4953C209.371 26.7854 209.758 26.8821 210.242 26.8821Z" fill="#36C5F3"/>
<path d="M220.742 41H10.2097C4.59677 41 0 36.4068 0 30.7983V10.2017C0 4.59316 4.59677 0 10.2097 0H220.742C226.403 0 230.952 4.59316 230.952 10.2017V30.75C231 36.4068 226.403 41 220.742 41ZM10.2097 1.35377C5.32258 1.35377 1.35484 5.3184 1.35484 10.2017V30.75C1.35484 35.6816 5.32258 39.6462 10.2097 39.6462H220.742C225.629 39.6462 229.645 35.6816 229.645 30.75V10.2017C229.645 5.3184 225.677 1.30542 220.742 1.30542H10.2097V1.35377Z" fill="#36C5F3"/>
</g>
<defs>
<clipPath id="clip0_1476_5286">
<rect width="231" height="41" fill="white"/>
</clipPath>
</defs>
</svg>
