<svg width="603" height="202" viewBox="0 0 603 202" fill="none" xmlns="http://www.w3.org/2000/svg">
<path d="M33.1667 153H5.58333V55.3333H16.5833C19.5278 55.3333 23.9722 55.2222 29.9167 55C35.8611 54.7222 40.75 54.5833 44.5833 54.5833C55.3611 54.5833 63.5278 57.4444 69.0833 63.1667C74.6389 68.8889 77.4167 77.4722 77.4167 88.9167C77.4167 95.8056 76.5 102.083 74.6667 107.75C72.8889 113.361 70.4722 117.972 67.4167 121.583C64.3611 125.194 60.8889 127.972 57 129.917C53.1111 131.861 49 132.833 44.6667 132.833C44.1111 132.833 43.5278 132.833 42.9167 132.833C42.3611 132.833 41.8333 132.833 41.3333 132.833C40.8889 132.778 40.3333 132.75 39.6667 132.75C39.0556 132.694 38.5556 132.667 38.1667 132.667C37.8333 132.611 37.3333 132.583 36.6667 132.583C36.0556 132.528 35.6389 132.5 35.4167 132.5C35.1944 132.5 34.7778 132.472 34.1667 132.417C33.5556 132.361 33.2222 132.333 33.1667 132.333V153ZM50.0833 85.25C50.0833 81.1389 48.9722 77.8056 46.75 75.25C44.5278 72.6944 41.3333 71.4167 37.1667 71.4167H33.1667V114.75H36.25C40.6389 114.75 44.0278 113.278 46.4167 110.333C48.8611 107.389 50.0833 103.139 50.0833 97.5833V85.25ZM122.042 109.917C122.042 102.861 121.681 97.8611 120.958 94.9167C120.236 91.9722 118.903 90.5 116.958 90.5C115.292 90.5 113.931 90.8056 112.875 91.4167C111.819 91.9722 111.042 92.8889 110.542 94.1667C110.042 95.3889 109.708 96.6667 109.542 98C109.431 99.2778 109.375 100.917 109.375 102.917V109.917H122.042ZM115.375 154.75C109.153 154.75 103.736 153.806 99.125 151.917C94.5694 150.028 90.9583 147.389 88.2917 144C85.6806 140.611 83.7639 136.806 82.5417 132.583C81.3194 128.306 80.7083 123.556 80.7083 118.333C80.7083 105.889 83.875 96.4722 90.2083 90.0833C96.5417 83.6944 105.403 80.5 116.792 80.5C127.736 80.5 135.569 83.0833 140.292 88.25C145.014 93.3611 147.375 101.611 147.375 113V122.25H109.292V123.833C109.292 127.111 109.625 129.806 110.292 131.917C111.014 134.028 112.042 135.583 113.375 136.583C114.708 137.583 116.069 138.25 117.458 138.583C118.847 138.917 120.542 139.083 122.542 139.083C124.486 139.083 126.569 138.833 128.792 138.333C131.069 137.833 133.347 137.056 135.625 136C137.958 134.944 139.903 133.694 141.458 132.25L146.375 140.667C144.319 144 141.292 146.806 137.292 149.083C133.347 151.306 129.542 152.806 125.875 153.583C122.208 154.361 118.708 154.75 115.375 154.75ZM175.902 154.75C168.402 154.75 163.152 152.5 160.152 148C157.208 143.5 155.736 135.889 155.736 125.167V96.8333H149.986V85.25L159.819 82.1667L168.319 62.75H182.986V82.1667H196.652V96.8333H182.736V127.833C182.736 132.278 183.375 135.222 184.652 136.667C185.93 138.111 187.902 138.833 190.569 138.833C191.736 138.833 192.791 138.694 193.736 138.417C194.68 138.139 195.458 137.75 196.069 137.25V148.583C195.236 149.417 194.152 150.25 192.819 151.083C191.486 151.861 189.263 152.667 186.152 153.5C183.097 154.333 179.68 154.75 175.902 154.75ZM230.676 153H203.093V55.3333H214.093C217.038 55.3333 221.482 55.2222 227.426 55C233.371 54.7222 238.26 54.5833 242.093 54.5833C252.871 54.5833 261.038 57.4444 266.593 63.1667C272.149 68.8889 274.926 77.4722 274.926 88.9167C274.926 95.8056 274.01 102.083 272.176 107.75C270.399 113.361 267.982 117.972 264.926 121.583C261.871 125.194 258.399 127.972 254.51 129.917C250.621 131.861 246.51 132.833 242.176 132.833C241.621 132.833 241.038 132.833 240.426 132.833C239.871 132.833 239.343 132.833 238.843 132.833C238.399 132.778 237.843 132.75 237.176 132.75C236.565 132.694 236.065 132.667 235.676 132.667C235.343 132.611 234.843 132.583 234.176 132.583C233.565 132.528 233.149 132.5 232.926 132.5C232.704 132.5 232.288 132.472 231.676 132.417C231.065 132.361 230.732 132.333 230.676 132.333V153ZM247.593 85.25C247.593 81.1389 246.482 77.8056 244.26 75.25C242.038 72.6944 238.843 71.4167 234.676 71.4167H230.676V114.75H233.76C238.149 114.75 241.538 113.278 243.926 110.333C246.371 107.389 247.593 103.139 247.593 97.5833V85.25ZM318.135 145.583L317.301 146.5C316.746 147.167 315.885 147.944 314.718 148.833C313.607 149.722 312.301 150.611 310.801 151.5C309.357 152.389 307.579 153.139 305.468 153.75C303.357 154.417 301.19 154.75 298.968 154.75C283.968 154.75 276.468 147.333 276.468 132.5C276.468 129.611 276.996 126.972 278.051 124.583C279.107 122.139 280.468 120.083 282.135 118.417C283.801 116.75 285.801 115.278 288.135 114C290.468 112.667 292.801 111.639 295.135 110.917C297.524 110.139 300.024 109.5 302.635 109C305.246 108.5 307.579 108.167 309.635 108C311.69 107.833 313.663 107.75 315.551 107.75V106.25C315.551 102.861 314.635 100.472 312.801 99.0833C311.024 97.6944 308.135 97 304.135 97C300.69 97 297.107 97.4167 293.385 98.25C289.663 99.0278 286.746 99.9722 284.635 101.083L279.301 89.75C283.079 87.3056 287.996 85.1667 294.051 83.3333C300.107 81.4444 306.274 80.5 312.551 80.5C318.107 80.5 322.69 81.0556 326.301 82.1667C329.913 83.2222 332.829 85.0556 335.051 87.6667C337.329 90.2222 338.94 93.5 339.885 97.5C340.829 101.444 341.301 106.472 341.301 112.583V146.5L343.635 153H320.801L318.135 145.583ZM311.551 140.083C312.274 140.083 312.94 139.944 313.551 139.667C314.218 139.333 314.718 139.028 315.051 138.75C315.385 138.417 315.551 138.25 315.551 138.25V118.25C312.163 118.25 309.468 119.194 307.468 121.083C305.468 122.917 304.468 125.778 304.468 129.667C304.468 136.611 306.829 140.083 311.551 140.083ZM373.876 154.75C368.653 154.75 363.376 153.889 358.042 152.167C352.709 150.389 349.292 148.667 347.792 147L349.959 133.583C351.848 135.417 354.987 137 359.376 138.333C363.82 139.667 368.348 140.333 372.959 140.333C376.292 140.333 378.57 139.917 379.792 139.083C381.07 138.25 381.709 137.083 381.709 135.583C381.709 134.139 380.598 132.861 378.376 131.75C376.153 130.583 372.542 129.25 367.542 127.75C354.598 123.861 348.126 115.806 348.126 103.583C348.126 98.5833 349.57 94.3056 352.459 90.75C355.348 87.1389 359.042 84.5278 363.542 82.9167C368.042 81.3056 373.07 80.5 378.626 80.5C388.126 80.5 395.126 82.25 399.626 85.75C400.626 86.6944 401.126 87.1667 401.126 87.1667L397.459 99.0833C393.792 95.4722 388.737 93.6667 382.292 93.6667C377.015 93.6667 374.376 95.2222 374.376 98.3333C374.376 99.2222 374.57 99.9722 374.959 100.583C375.348 101.139 375.987 101.639 376.876 102.083C377.82 102.472 378.737 102.806 379.626 103.083C380.515 103.306 381.765 103.639 383.376 104.083C384.987 104.472 386.376 104.833 387.542 105.167C394.042 107.333 398.765 110.389 401.709 114.333C404.653 118.278 406.126 123.194 406.126 129.083C406.126 146.194 395.376 154.75 373.876 154.75ZM435.155 154.75C429.933 154.75 424.655 153.889 419.322 152.167C413.988 150.389 410.572 148.667 409.072 147L411.238 133.583C413.127 135.417 416.266 137 420.655 138.333C425.099 139.667 429.627 140.333 434.238 140.333C437.572 140.333 439.849 139.917 441.072 139.083C442.349 138.25 442.988 137.083 442.988 135.583C442.988 134.139 441.877 132.861 439.655 131.75C437.433 130.583 433.822 129.25 428.822 127.75C415.877 123.861 409.405 115.806 409.405 103.583C409.405 98.5833 410.849 94.3056 413.738 90.75C416.627 87.1389 420.322 84.5278 424.822 82.9167C429.322 81.3056 434.349 80.5 439.905 80.5C449.405 80.5 456.405 82.25 460.905 85.75C461.905 86.6944 462.405 87.1667 462.405 87.1667L458.738 99.0833C455.072 95.4722 450.016 93.6667 443.572 93.6667C438.294 93.6667 435.655 95.2222 435.655 98.3333C435.655 99.2222 435.849 99.9722 436.238 100.583C436.627 101.139 437.266 101.639 438.155 102.083C439.099 102.472 440.016 102.806 440.905 103.083C441.794 103.306 443.044 103.639 444.655 104.083C446.266 104.472 447.655 104.833 448.822 105.167C455.322 107.333 460.044 110.389 462.988 114.333C465.933 118.278 467.405 123.194 467.405 129.083C467.405 146.194 456.655 154.75 435.155 154.75Z" fill="#0B344E"/>
<path d="M564.335 78.1676C564.161 57.5218 547.378 40.8361 526.694 40.8247C505.83 40.8133 489 57.9277 489 78.7813V147.164C489 148.93 489.701 150.623 490.95 151.871C492.198 153.12 493.891 153.821 495.657 153.821H564.335C585.138 153.821 602.003 136.632 602.003 115.829C602.003 95.0255 585.138 78.1676 564.335 78.1676Z" fill="#FF41AD"/>
<path opacity="0.1" d="M564.335 77.8429C564.161 57.1971 547.378 40.5114 526.694 40.5C515.384 40.5 505.262 45.5234 498.358 53.4515C504.895 48.4109 512.919 45.6829 521.173 45.6955C541.858 45.7069 558.641 62.3927 558.815 83.0384C579.618 83.0384 596.483 99.9028 596.483 120.706C596.495 129.78 593.219 138.551 587.262 145.396C591.85 141.882 595.567 137.358 598.124 132.175C600.68 126.992 602.007 121.29 602.003 115.51C602.003 94.7072 585.138 77.8429 564.335 77.8429Z" fill="black"/>
</svg>
