<svg width="668" height="851" viewBox="0 0 668 851" fill="none" xmlns="http://www.w3.org/2000/svg">
<g clip-path="url(#clip0_1_35)">
<path d="M451.793 215.896C450.799 97.8367 354.828 2.42191 236.546 2.35691C117.242 2.29191 21.0011 100.158 21.0011 219.405V610.442C21.0011 620.537 25.0116 630.22 32.1503 637.358C39.289 644.497 48.9711 648.507 59.0667 648.507H451.793C570.753 648.507 667.189 550.214 667.189 431.255C667.189 312.295 570.753 215.896 451.793 215.896Z" fill="#FF41AD"/>
<path opacity="0.1" d="M451.793 214.039C450.799 95.9798 354.828 0.56499 236.546 0.50005C171.871 0.50005 113.993 29.2257 74.5159 74.5609C111.892 45.7373 157.78 30.1377 204.979 30.2098C323.261 30.2748 419.233 125.69 420.226 243.749C539.186 243.749 635.622 340.185 635.622 459.145C635.693 511.033 616.962 561.191 582.897 600.331C609.134 580.238 630.387 554.368 645.006 524.73C659.625 495.091 667.216 462.482 667.189 429.435C667.189 310.475 570.753 214.039 451.793 214.039Z" fill="black"/>
<path d="M215.733 582.535C220.733 606.535 249.233 577.035 249.233 577.035L283.233 573.035C283.233 573.035 304.733 573.535 318.733 584.535C332.733 595.535 342.233 581.035 342.233 581.035C358.006 586.292 377.33 586.271 394.066 584.587C418.182 582.161 437.512 563.547 440.826 539.537C459.523 404.095 356.733 337.535 356.733 337.535L326.733 256.535C326.733 256.535 336.233 233.035 339.233 212.035C342.233 191.035 320.233 171.035 293.233 151.035C281.421 142.285 267.885 142.914 256.396 146.39C243.507 150.289 232.264 158.308 223.956 168.906C217.074 177.686 205.269 190.121 192.293 192.275C187.803 193.015 183.373 194.795 179.233 198.035C174.953 201.385 173.063 206.975 173.003 213.925C172.683 244.285 197.753 280.835 219.733 286.535C246.733 293.535 232.233 360.035 232.233 360.035C188.233 422.035 219.233 491.035 219.233 491.035L211.233 547.035C211.233 547.035 210.733 558.535 215.733 582.535Z" fill="#EFCF90"/>
<path d="M362.733 453.535L351.733 590.535C351.733 590.535 366.733 628.535 315.733 626.535C264.733 624.535 294.733 546.535 294.733 546.535L310.733 444.535" fill="#D0B160"/>
<path d="M319.528 627.611C318.281 627.611 317.005 627.586 315.694 627.534C304.404 627.091 296.09 622.933 290.983 615.175C276.38 592.994 292.622 549.269 293.761 546.276L309.745 444.38C309.831 443.834 310.338 443.466 310.888 443.547C311.433 443.632 311.806 444.144 311.721 444.69L295.721 546.69C295.71 546.759 295.692 546.828 295.667 546.894C295.492 547.346 278.415 592.45 292.655 614.078C297.387 621.264 305.165 625.12 315.772 625.536C332.424 626.185 343.625 622.632 349.07 614.967C356.194 604.939 350.857 591.041 350.802 590.901C350.747 590.759 350.724 590.606 350.736 590.455L361.736 453.455C361.78 452.905 362.253 452.504 362.813 452.538C363.364 452.583 363.774 453.064 363.73 453.615L352.748 590.39C353.474 592.351 358.03 605.795 350.709 616.114C345.292 623.75 334.81 627.611 319.528 627.611Z" fill="#D0B160"/>
<path d="M271.733 481.535C271.733 481.535 274.733 608.535 211.733 605.535C148.733 602.535 205.733 562.535 205.733 562.535L211.233 547.035" fill="#D0B160"/>
<path d="M213.895 606.587C213.164 606.587 212.428 606.569 211.685 606.534C193.697 605.677 183.533 601.647 181.477 594.555C177.773 581.776 201.917 564.034 204.896 561.902L210.291 546.701C210.475 546.179 211.047 545.908 211.567 546.092C212.088 546.277 212.36 546.848 212.175 547.369L206.675 562.869C206.606 563.065 206.477 563.234 206.307 563.353C206.044 563.539 179.93 582.038 183.399 593.999C185.191 600.179 194.74 603.724 211.781 604.536C223.13 605.082 233.078 601.265 241.332 593.207C272.284 562.991 270.753 482.369 270.733 481.558C270.72 481.006 271.157 480.548 271.71 480.535C272.232 480.536 272.719 480.96 272.733 481.511C272.812 484.857 274.305 563.809 242.73 594.636C234.602 602.572 224.91 606.587 213.895 606.587Z" fill="#D0B160"/>
<path d="M173.003 213.925C180.183 214.785 191.423 214.745 200.733 208.535C210.703 201.885 200.353 195.685 192.293 192.275C187.803 193.015 183.373 194.795 179.233 198.035C174.953 201.385 173.063 206.975 173.003 213.925Z" fill="#2F2E41"/>
<path d="M289.031 195.944C289.031 195.944 271.582 151.127 296.574 150.5C321.566 149.873 341.306 188.71 341.306 188.71C341.306 188.71 404.034 303.053 318.093 296.887C232.151 290.721 273.219 245.076 273.219 245.076C273.219 245.076 292.821 220.977 289.031 195.944Z" fill="#D0B160"/>
<path d="M384.772 530.851C395.84 535.774 407.403 540.799 419.507 540.318C431.611 539.837 444.349 532.042 446.235 520.077C447.209 513.9 445.278 507.273 447.643 501.484C450.825 493.695 461.089 490.692 469.069 493.361C477.048 496.03 482.909 502.913 487.112 510.201C494.975 523.838 498.126 541.736 489.695 555.029C482.386 566.553 468.524 571.76 455.63 576.227C438.455 582.176 419.279 588.081 402.636 580.773C385.898 573.423 376.78 552.188 382.978 534.991" fill="#D0B160"/>
<path d="M347.847 314.921C347.847 314.921 369.847 325.921 358.847 337.921C347.847 349.921 279.847 383.921 254.847 378.921C229.847 373.921 223.847 358.921 223.847 354.921C223.847 350.921 225.733 302.535 233.733 304.535C241.733 306.535 291.847 351.921 347.847 314.921Z" fill="#77DBF1"/>
</g>
<path d="M130.167 802H102.583V704.333H113.583C116.528 704.333 120.972 704.222 126.917 704C132.861 703.722 137.75 703.583 141.583 703.583C152.361 703.583 160.528 706.444 166.083 712.167C171.639 717.889 174.417 726.472 174.417 737.917C174.417 744.806 173.5 751.083 171.667 756.75C169.889 762.361 167.472 766.972 164.417 770.583C161.361 774.194 157.889 776.972 154 778.917C150.111 780.861 146 781.833 141.667 781.833C141.111 781.833 140.528 781.833 139.917 781.833C139.361 781.833 138.833 781.833 138.333 781.833C137.889 781.778 137.333 781.75 136.667 781.75C136.056 781.694 135.556 781.667 135.167 781.667C134.833 781.611 134.333 781.583 133.667 781.583C133.056 781.528 132.639 781.5 132.417 781.5C132.194 781.5 131.778 781.472 131.167 781.417C130.556 781.361 130.222 781.333 130.167 781.333V802ZM147.083 734.25C147.083 730.139 145.972 726.806 143.75 724.25C141.528 721.694 138.333 720.417 134.167 720.417H130.167V763.75H133.25C137.639 763.75 141.028 762.278 143.417 759.333C145.861 756.389 147.083 752.139 147.083 746.583V734.25ZM219.042 758.917C219.042 751.861 218.681 746.861 217.958 743.917C217.236 740.972 215.903 739.5 213.958 739.5C212.292 739.5 210.931 739.806 209.875 740.417C208.819 740.972 208.042 741.889 207.542 743.167C207.042 744.389 206.708 745.667 206.542 747C206.431 748.278 206.375 749.917 206.375 751.917V758.917H219.042ZM212.375 803.75C206.153 803.75 200.736 802.806 196.125 800.917C191.569 799.028 187.958 796.389 185.292 793C182.681 789.611 180.764 785.806 179.542 781.583C178.319 777.306 177.708 772.556 177.708 767.333C177.708 754.889 180.875 745.472 187.208 739.083C193.542 732.694 202.403 729.5 213.792 729.5C224.736 729.5 232.569 732.083 237.292 737.25C242.014 742.361 244.375 750.611 244.375 762V771.25H206.292V772.833C206.292 776.111 206.625 778.806 207.292 780.917C208.014 783.028 209.042 784.583 210.375 785.583C211.708 786.583 213.069 787.25 214.458 787.583C215.847 787.917 217.542 788.083 219.542 788.083C221.486 788.083 223.569 787.833 225.792 787.333C228.069 786.833 230.347 786.056 232.625 785C234.958 783.944 236.903 782.694 238.458 781.25L243.375 789.667C241.319 793 238.292 795.806 234.292 798.083C230.347 800.306 226.542 801.806 222.875 802.583C219.208 803.361 215.708 803.75 212.375 803.75ZM272.902 803.75C265.402 803.75 260.152 801.5 257.152 797C254.208 792.5 252.736 784.889 252.736 774.167V745.833H246.986V734.25L256.819 731.167L265.319 711.75H279.986V731.167H293.652V745.833H279.736V776.833C279.736 781.278 280.375 784.222 281.652 785.667C282.93 787.111 284.902 787.833 287.569 787.833C288.736 787.833 289.791 787.694 290.736 787.417C291.68 787.139 292.458 786.75 293.069 786.25V797.583C292.236 798.417 291.152 799.25 289.819 800.083C288.486 800.861 286.263 801.667 283.152 802.5C280.097 803.333 276.68 803.75 272.902 803.75ZM327.676 802H300.093V704.333H311.093C314.038 704.333 318.482 704.222 324.426 704C330.371 703.722 335.26 703.583 339.093 703.583C349.871 703.583 358.038 706.444 363.593 712.167C369.149 717.889 371.926 726.472 371.926 737.917C371.926 744.806 371.01 751.083 369.176 756.75C367.399 762.361 364.982 766.972 361.926 770.583C358.871 774.194 355.399 776.972 351.51 778.917C347.621 780.861 343.51 781.833 339.176 781.833C338.621 781.833 338.038 781.833 337.426 781.833C336.871 781.833 336.343 781.833 335.843 781.833C335.399 781.778 334.843 781.75 334.176 781.75C333.565 781.694 333.065 781.667 332.676 781.667C332.343 781.611 331.843 781.583 331.176 781.583C330.565 781.528 330.149 781.5 329.926 781.5C329.704 781.5 329.288 781.472 328.676 781.417C328.065 781.361 327.732 781.333 327.676 781.333V802ZM344.593 734.25C344.593 730.139 343.482 726.806 341.26 724.25C339.038 721.694 335.843 720.417 331.676 720.417H327.676V763.75H330.76C335.149 763.75 338.538 762.278 340.926 759.333C343.371 756.389 344.593 752.139 344.593 746.583V734.25ZM415.135 794.583L414.301 795.5C413.746 796.167 412.885 796.944 411.718 797.833C410.607 798.722 409.301 799.611 407.801 800.5C406.357 801.389 404.579 802.139 402.468 802.75C400.357 803.417 398.19 803.75 395.968 803.75C380.968 803.75 373.468 796.333 373.468 781.5C373.468 778.611 373.996 775.972 375.051 773.583C376.107 771.139 377.468 769.083 379.135 767.417C380.801 765.75 382.801 764.278 385.135 763C387.468 761.667 389.801 760.639 392.135 759.917C394.524 759.139 397.024 758.5 399.635 758C402.246 757.5 404.579 757.167 406.635 757C408.69 756.833 410.663 756.75 412.551 756.75V755.25C412.551 751.861 411.635 749.472 409.801 748.083C408.024 746.694 405.135 746 401.135 746C397.69 746 394.107 746.417 390.385 747.25C386.663 748.028 383.746 748.972 381.635 750.083L376.301 738.75C380.079 736.306 384.996 734.167 391.051 732.333C397.107 730.444 403.274 729.5 409.551 729.5C415.107 729.5 419.69 730.056 423.301 731.167C426.913 732.222 429.829 734.056 432.051 736.667C434.329 739.222 435.94 742.5 436.885 746.5C437.829 750.444 438.301 755.472 438.301 761.583V795.5L440.635 802H417.801L415.135 794.583ZM408.551 789.083C409.274 789.083 409.94 788.944 410.551 788.667C411.218 788.333 411.718 788.028 412.051 787.75C412.385 787.417 412.551 787.25 412.551 787.25V767.25C409.163 767.25 406.468 768.194 404.468 770.083C402.468 771.917 401.468 774.778 401.468 778.667C401.468 785.611 403.829 789.083 408.551 789.083ZM470.876 803.75C465.653 803.75 460.376 802.889 455.042 801.167C449.709 799.389 446.292 797.667 444.792 796L446.959 782.583C448.848 784.417 451.987 786 456.376 787.333C460.82 788.667 465.348 789.333 469.959 789.333C473.292 789.333 475.57 788.917 476.792 788.083C478.07 787.25 478.709 786.083 478.709 784.583C478.709 783.139 477.598 781.861 475.376 780.75C473.153 779.583 469.542 778.25 464.542 776.75C451.598 772.861 445.126 764.806 445.126 752.583C445.126 747.583 446.57 743.306 449.459 739.75C452.348 736.139 456.042 733.528 460.542 731.917C465.042 730.306 470.07 729.5 475.626 729.5C485.126 729.5 492.126 731.25 496.626 734.75C497.626 735.694 498.126 736.167 498.126 736.167L494.459 748.083C490.792 744.472 485.737 742.667 479.292 742.667C474.015 742.667 471.376 744.222 471.376 747.333C471.376 748.222 471.57 748.972 471.959 749.583C472.348 750.139 472.987 750.639 473.876 751.083C474.82 751.472 475.737 751.806 476.626 752.083C477.515 752.306 478.765 752.639 480.376 753.083C481.987 753.472 483.376 753.833 484.542 754.167C491.042 756.333 495.765 759.389 498.709 763.333C501.653 767.278 503.126 772.194 503.126 778.083C503.126 795.194 492.376 803.75 470.876 803.75ZM532.155 803.75C526.933 803.75 521.655 802.889 516.322 801.167C510.988 799.389 507.572 797.667 506.072 796L508.238 782.583C510.127 784.417 513.266 786 517.655 787.333C522.099 788.667 526.627 789.333 531.238 789.333C534.572 789.333 536.849 788.917 538.072 788.083C539.349 787.25 539.988 786.083 539.988 784.583C539.988 783.139 538.877 781.861 536.655 780.75C534.433 779.583 530.822 778.25 525.822 776.75C512.877 772.861 506.405 764.806 506.405 752.583C506.405 747.583 507.849 743.306 510.738 739.75C513.627 736.139 517.322 733.528 521.822 731.917C526.322 730.306 531.349 729.5 536.905 729.5C546.405 729.5 553.405 731.25 557.905 734.75C558.905 735.694 559.405 736.167 559.405 736.167L555.738 748.083C552.072 744.472 547.016 742.667 540.572 742.667C535.294 742.667 532.655 744.222 532.655 747.333C532.655 748.222 532.849 748.972 533.238 749.583C533.627 750.139 534.266 750.639 535.155 751.083C536.099 751.472 537.016 751.806 537.905 752.083C538.794 752.306 540.044 752.639 541.655 753.083C543.266 753.472 544.655 753.833 545.822 754.167C552.322 756.333 557.044 759.389 559.988 763.333C562.933 767.278 564.405 772.194 564.405 778.083C564.405 795.194 553.655 803.75 532.155 803.75Z" fill="white"/>
<defs>
<clipPath id="clip0_1_35">
<rect width="667.189" height="648.099" fill="white" transform="translate(0 0.5)"/>
</clipPath>
</defs>
</svg>
