<svg width="80" height="80" viewBox="0 0 80 80" fill="none" xmlns="http://www.w3.org/2000/svg">
<path d="M34.542 48.0873C34.542 48.0873 34.542 52.6718 40.8055 52.6718C48.7553 52.6718 48.7553 41.8139 40.8055 40.1249C32.8557 38.4359 32.8557 27.578 40.8055 27.578C43.2145 27.3367 45.6236 29.267 45.8645 31.6798V31.9211" stroke="#3B475A" stroke-width="2" stroke-miterlimit="10" stroke-linecap="round" stroke-linejoin="round"/>
<path d="M41.2871 23.2349V27.8194" stroke="#3B475A" stroke-width="2" stroke-miterlimit="10" stroke-linecap="round" stroke-linejoin="round"/>
<path d="M41.2871 52.6719V57.2563" stroke="#3B475A" stroke-width="2" stroke-miterlimit="10" stroke-linecap="round" stroke-linejoin="round"/>
<path d="M40.083 66.1837C54.452 66.1837 66.1005 54.5167 66.1005 40.1248C66.1005 25.7329 54.452 14.0659 40.083 14.0659C25.7139 14.0659 14.0654 25.7329 14.0654 40.1248C14.0654 54.5167 25.7139 66.1837 40.083 66.1837Z" stroke="#3B475A" stroke-width="2" stroke-miterlimit="10" stroke-linecap="round" stroke-linejoin="round"/>
</svg>
