<svg width="85" height="85" viewBox="0 0 85 85" fill="none" xmlns="http://www.w3.org/2000/svg">
<path d="M38.1826 65.7056H47.6532" stroke="#3B475A" stroke-width="2" stroke-miterlimit="10" stroke-linecap="round" stroke-linejoin="round"/>
<path d="M38.1826 70.5767H47.6532" stroke="#3B475A" stroke-width="2" stroke-miterlimit="10" stroke-linecap="round" stroke-linejoin="round"/>
<path d="M59.6841 31.865C59.6841 22.6358 52.2612 14.9448 43.0467 14.9448H42.7907C33.5762 15.2012 26.1533 22.6359 26.1533 32.1214C26.1533 37.2487 28.7129 42.1197 32.8083 45.4524C34.6 46.7343 35.6238 49.0416 35.6238 51.3489V58.0144C35.6238 60.0653 36.6477 61.0908 37.9275 61.0908H47.654C48.9338 61.0908 49.9576 60.3217 49.9576 59.0399V58.7835V51.6052C49.9576 49.5543 50.9814 47.5034 52.5172 45.9652C57.1245 42.6324 59.6841 37.5051 59.6841 31.865Z" stroke="#3B475A" stroke-width="2" stroke-miterlimit="10" stroke-linecap="round" stroke-linejoin="round"/>
<path d="M42.79 39.2998V60.8346" stroke="#3B475A" stroke-width="2" stroke-miterlimit="10" stroke-linecap="round" stroke-linejoin="round"/>
<path d="M38.1826 34.4287L42.7899 39.2997" stroke="#3B475A" stroke-width="2" stroke-miterlimit="10" stroke-linecap="round" stroke-linejoin="round"/>
<path d="M47.6533 34.4287L42.79 39.2997" stroke="#3B475A" stroke-width="2" stroke-miterlimit="10" stroke-linecap="round" stroke-linejoin="round"/>
</svg>
