<svg width="80" height="80" viewBox="0 0 80 80" fill="none" xmlns="http://www.w3.org/2000/svg">
<path d="M64.1296 63.8848H16.4478C13.6873 63.8848 11.4287 61.8609 11.4287 59.3872V30.1524C11.4287 27.6787 13.6873 25.6548 16.4478 25.6548H64.1296C66.8901 25.6548 69.1487 27.6787 69.1487 30.1524V59.3872C69.1487 61.8609 66.8901 63.8848 64.1296 63.8848Z" stroke="#0B344E" stroke-width="2" stroke-miterlimit="10" stroke-linecap="round" stroke-linejoin="round"/>
<path d="M69.1487 31.1162L65.1159 35.4853C62.8474 38.0554 60.0748 39.8544 56.7981 40.8824L46.716 44.2237V41.6536C46.716 40.3685 45.7078 39.0835 44.4476 39.0835H44.1955H36.6339C35.3737 39.0835 34.1134 40.1116 34.1134 41.3966V41.6536V44.2237L24.0313 40.8824C20.7546 39.8544 17.73 38.0554 15.4616 35.4853L11.4287 31.1162" stroke="#0B344E" stroke-width="2" stroke-miterlimit="10" stroke-linecap="round" stroke-linejoin="round"/>
<path d="M48.2695 15.8242H31.0763C29.8482 15.8242 28.6201 16.8073 28.6201 18.0362V18.2819V25.6548H50.7257V18.2819C50.7257 17.053 49.7432 15.8242 48.5151 15.8242C48.5151 15.8242 48.5151 15.8242 48.2695 15.8242Z" stroke="#0B344E" stroke-width="2" stroke-miterlimit="10" stroke-linecap="round" stroke-linejoin="round"/>
<path d="M44.1323 47.4724H36.7477C35.5169 47.4724 34.2861 46.5932 34.2861 45.4943V45.2746V40.879C34.2861 39.7801 35.2707 38.6812 36.5015 38.6812H36.7477H44.1323C45.3631 38.6812 46.5938 39.5603 46.5938 40.6592V40.879V45.2746C46.5938 46.3735 45.6092 47.4724 44.3784 47.4724C44.3784 47.4724 44.3784 47.4724 44.1323 47.4724Z" stroke="#0B344E" stroke-width="2" stroke-miterlimit="10" stroke-linecap="round" stroke-linejoin="round"/>
</svg>
