<svg width="67" height="96" viewBox="0 0 67 96" fill="none" xmlns="http://www.w3.org/2000/svg">
<path d="M55.0427 95.7919H6.086C2.73583 95.7919 0 93.0657 0 89.7156V6.08599C0 2.73582 2.72623 0 6.086 0H55.0427C58.3929 0 61.1191 2.72622 61.1191 6.08599V89.7156C61.1191 93.0657 58.3929 95.7919 55.0427 95.7919ZM6.086 1.39191C3.49418 1.39191 1.38232 3.50376 1.38232 6.09559V89.7251C1.38232 92.317 3.49418 94.4288 6.086 94.4288H55.0427C57.6345 94.4288 59.7464 92.317 59.7464 89.7251V6.09559C59.7464 3.50376 57.6345 1.39191 55.0427 1.39191H6.086Z" fill="#92A9E3"/>
<path d="M50.4255 39.3283H11.0682C9.3403 39.3283 7.9292 37.9172 7.9292 36.1893V11.807C7.9292 10.0791 9.3403 8.66797 11.0682 8.66797H50.4255C52.1534 8.66797 53.5645 10.0791 53.5645 11.807V36.1893C53.5645 37.9172 52.163 39.3283 50.4255 39.3283ZM11.0778 10.0599C10.1083 10.0599 9.32111 10.847 9.32111 11.8165V36.1893C9.32111 37.1588 10.1083 37.946 11.0778 37.946H50.4351C51.4047 37.946 52.1918 37.1588 52.1918 36.1893V11.807C52.1918 10.8374 51.4047 10.0503 50.4351 10.0503H11.0778V10.0599Z" fill="#92A9E3"/>
<path d="M17.8455 53.2956H10.1564C8.93728 53.2956 7.93896 52.2972 7.93896 51.0781V47.0944C7.93896 45.8753 8.93728 44.877 10.1564 44.877H17.8455C19.0646 44.877 20.0629 45.8753 20.0629 47.0944V51.0781C20.0629 52.2972 19.0742 53.2956 17.8455 53.2956ZM10.1564 46.2593C9.69563 46.2593 9.32126 46.6336 9.32126 47.0944V51.0781C9.32126 51.5389 9.69563 51.9133 10.1564 51.9133H17.8455C18.3063 51.9133 18.6806 51.5389 18.6806 51.0781V47.0944C18.6806 46.6336 18.3063 46.2593 17.8455 46.2593H10.1564Z" fill="#92A9E3"/>
<path d="M34.5965 53.2956H26.9074C25.6883 53.2956 24.6899 52.2972 24.6899 51.0781V47.0944C24.6899 45.8753 25.6883 44.877 26.9074 44.877H34.5965C35.8156 44.877 36.8139 45.8753 36.8139 47.0944V51.0781C36.8139 52.2972 35.8156 53.2956 34.5965 53.2956ZM26.9074 46.2593C26.4466 46.2593 26.0722 46.6336 26.0722 47.0944V51.0781C26.0722 51.5389 26.4466 51.9133 26.9074 51.9133H34.5965C35.0572 51.9133 35.4316 51.5389 35.4316 51.0781V47.0944C35.4316 46.6336 35.0572 46.2593 34.5965 46.2593H26.9074Z" fill="#92A9E3"/>
<path d="M51.347 53.2956H43.6579C42.4387 53.2956 41.4404 52.2972 41.4404 51.0781V47.0944C41.4404 45.8753 42.4387 44.877 43.6579 44.877H51.347C52.5661 44.877 53.5644 45.8753 53.5644 47.0944V51.0781C53.5644 52.2972 52.5661 53.2956 51.347 53.2956ZM43.6579 46.2593C43.1971 46.2593 42.8227 46.6336 42.8227 47.0944V51.0781C42.8227 51.5389 43.1971 51.9133 43.6579 51.9133H51.347C51.8077 51.9133 52.1821 51.5389 52.1821 51.0781V47.0944C52.1821 46.6336 51.8077 46.2593 51.347 46.2593H43.6579Z" fill="#92A9E3"/>
<path d="M17.8455 64.9684H10.1564C8.93728 64.9684 7.93896 63.9701 7.93896 62.751V58.7672C7.93896 57.5481 8.93728 56.5498 10.1564 56.5498H17.8455C19.0646 56.5498 20.0629 57.5481 20.0629 58.7672V62.751C20.0629 63.9797 19.0742 64.9684 17.8455 64.9684ZM10.1564 57.9417C9.69563 57.9417 9.32126 58.3161 9.32126 58.7768V62.7606C9.32126 63.2213 9.69563 63.5957 10.1564 63.5957H17.8455C18.3063 63.5957 18.6806 63.2213 18.6806 62.7606V58.7768C18.6806 58.3161 18.3063 57.9417 17.8455 57.9417H10.1564Z" fill="#92A9E3"/>
<path d="M34.5965 64.9684H26.9074C25.6883 64.9684 24.6899 63.9701 24.6899 62.751V58.7672C24.6899 57.5481 25.6883 56.5498 26.9074 56.5498H34.5965C35.8156 56.5498 36.8139 57.5481 36.8139 58.7672V62.751C36.8139 63.9797 35.8156 64.9684 34.5965 64.9684ZM26.9074 57.9417C26.4466 57.9417 26.0722 58.3161 26.0722 58.7768V62.7606C26.0722 63.2213 26.4466 63.5957 26.9074 63.5957H34.5965C35.0572 63.5957 35.4316 63.2213 35.4316 62.7606V58.7768C35.4316 58.3161 35.0572 57.9417 34.5965 57.9417H26.9074Z" fill="#92A9E3"/>
<path d="M51.347 64.9684H43.6579C42.4387 64.9684 41.4404 63.9701 41.4404 62.751V58.7672C41.4404 57.5481 42.4387 56.5498 43.6579 56.5498H51.347C52.5661 56.5498 53.5644 57.5481 53.5644 58.7672V62.751C53.5644 63.9797 52.5661 64.9684 51.347 64.9684ZM43.6579 57.9417C43.1971 57.9417 42.8227 58.3161 42.8227 58.7768V62.7606C42.8227 63.2213 43.1971 63.5957 43.6579 63.5957H51.347C51.8077 63.5957 52.1821 63.2213 52.1821 62.7606V58.7768C52.1821 58.3161 51.8077 57.9417 51.347 57.9417H43.6579Z" fill="#92A9E3"/>
<path d="M17.8455 76.6501H10.1564C8.93728 76.6501 7.93896 75.6517 7.93896 74.4326V70.4489C7.93896 69.2298 8.93728 68.2314 10.1564 68.2314H17.8455C19.0646 68.2314 20.0629 69.2298 20.0629 70.4489V74.4326C20.0629 75.6517 19.0742 76.6501 17.8455 76.6501ZM10.1564 69.6137C9.69563 69.6137 9.32126 69.9881 9.32126 70.4489V74.4326C9.32126 74.8934 9.69563 75.2678 10.1564 75.2678H17.8455C18.3063 75.2678 18.6806 74.8934 18.6806 74.4326V70.4489C18.6806 69.9881 18.3063 69.6137 17.8455 69.6137H10.1564Z" fill="#92A9E3"/>
<path d="M34.5965 76.6501H26.9074C25.6883 76.6501 24.6899 75.6517 24.6899 74.4326V70.4489C24.6899 69.2298 25.6883 68.2314 26.9074 68.2314H34.5965C35.8156 68.2314 36.8139 69.2298 36.8139 70.4489V74.4326C36.8139 75.6517 35.8156 76.6501 34.5965 76.6501ZM26.9074 69.6137C26.4466 69.6137 26.0722 69.9881 26.0722 70.4489V74.4326C26.0722 74.8934 26.4466 75.2678 26.9074 75.2678H34.5965C35.0572 75.2678 35.4316 74.8934 35.4316 74.4326V70.4489C35.4316 69.9881 35.0572 69.6137 34.5965 69.6137H26.9074Z" fill="#92A9E3"/>
<path d="M51.347 76.6501H43.6579C42.4387 76.6501 41.4404 75.6517 41.4404 74.4326V70.4489C41.4404 69.2298 42.4387 68.2314 43.6579 68.2314H51.347C52.5661 68.2314 53.5644 69.2298 53.5644 70.4489V74.4326C53.5644 75.6517 52.5661 76.6501 51.347 76.6501ZM43.6579 69.6137C43.1971 69.6137 42.8227 69.9881 42.8227 70.4489V74.4326C42.8227 74.8934 43.1971 75.2678 43.6579 75.2678H51.347C51.8077 75.2678 52.1821 74.8934 52.1821 74.4326V70.4489C52.1821 69.9881 51.8077 69.6137 51.347 69.6137H43.6579Z" fill="#92A9E3"/>
<path d="M16.4152 88.3239H11.5867C9.57085 88.3239 7.93896 86.692 7.93896 84.6762V83.553C7.93896 81.5372 9.57085 79.9053 11.5867 79.9053H16.4152C18.431 79.9053 20.0629 81.5372 20.0629 83.553V84.6762C20.0629 86.692 18.431 88.3239 16.4152 88.3239ZM11.5867 81.2876C10.3388 81.2876 9.32126 82.3051 9.32126 83.553V84.6762C9.32126 85.9241 10.3388 86.9416 11.5867 86.9416H16.4152C17.6631 86.9416 18.6806 85.9241 18.6806 84.6762V83.553C18.6806 82.3051 17.6631 81.2876 16.4152 81.2876H11.5867Z" fill="#92A9E3"/>
<path d="M33.1662 88.3239H28.3377C26.3218 88.3239 24.6899 86.692 24.6899 84.6762V83.553C24.6899 81.5372 26.3218 79.9053 28.3377 79.9053H33.1662C35.182 79.9053 36.8139 81.5372 36.8139 83.553V84.6762C36.8139 86.692 35.182 88.3239 33.1662 88.3239ZM28.3377 81.2876C27.0898 81.2876 26.0722 82.3051 26.0722 83.553V84.6762C26.0722 85.9241 27.0898 86.9416 28.3377 86.9416H33.1662C34.4141 86.9416 35.4316 85.9241 35.4316 84.6762V83.553C35.4316 82.3051 34.4141 81.2876 33.1662 81.2876H28.3377Z" fill="#92A9E3"/>
<path d="M49.9166 88.3239H45.0882C43.0723 88.3239 41.4404 86.692 41.4404 84.6762V83.553C41.4404 81.5372 43.0723 79.9053 45.0882 79.9053H49.9166C51.9325 79.9053 53.5644 81.5372 53.5644 83.553V84.6762C53.5644 86.692 51.9325 88.3239 49.9166 88.3239ZM45.0882 81.2876C43.8403 81.2876 42.8227 82.3051 42.8227 83.553V84.6762C42.8227 85.9241 43.8403 86.9416 45.0882 86.9416H49.9166C51.1646 86.9416 52.1821 85.9241 52.1821 84.6762V83.553C52.1821 82.3051 51.1646 81.2876 49.9166 81.2876H45.0882Z" fill="#92A9E3"/>
<path d="M60.428 81.1242C60.044 81.1242 59.7368 80.817 59.7368 80.433V17.7781C59.7368 17.3941 60.044 17.0869 60.428 17.0869C63.5094 17.0869 66.0052 19.5923 66.0052 22.6641V75.5374C66.0148 78.6188 63.5094 81.1242 60.428 81.1242ZM61.1191 18.5268V79.6843C63.1062 79.3579 64.6325 77.6204 64.6325 75.5374V22.6641C64.6325 20.5811 63.1158 18.8532 61.1191 18.5268Z" fill="#92A9E3"/>
</svg>
