<svg width="17" height="15" viewBox="0 0 17 15" fill="none" xmlns="http://www.w3.org/2000/svg">
<path d="M15.7387 11.8162C16.3395 12.354 16.3395 13.2253 15.7387 13.7632C15.4407 14.0321 15.0466 14.1655 14.6524 14.1655C14.2583 14.1655 13.8651 14.031 13.5652 13.7621L8.50005 9.23021L3.43539 13.761C3.13498 14.0321 2.74132 14.1655 2.34767 14.1655C1.95401 14.1655 1.56083 14.0321 1.26018 13.761C0.659366 13.2232 0.659366 12.3519 1.26018 11.814L6.32629 7.2789L1.26018 2.74591C0.659366 2.20806 0.659366 1.33674 1.26018 0.798894C1.861 0.261046 2.83433 0.261046 3.43515 0.798894L8.50005 5.33619L13.5661 0.801046C14.167 0.263197 15.1403 0.263197 15.7411 0.801046C16.3419 1.33889 16.3419 2.21021 15.7411 2.74806L10.675 7.2832L15.7387 11.8162Z" fill="#d8d7d7"/>
</svg>
