<svg width="52" height="25" viewBox="0 0 52 25" fill="none" xmlns="http://www.w3.org/2000/svg">
<path d="M31.6314 4.20557H21.7666V19.9306H31.6314V4.20557Z" fill="#FF5F00"/>
<path d="M22.783 12.0694C22.7818 10.5552 23.1335 9.06063 23.8115 7.69869C24.4895 6.33676 25.4761 5.14319 26.6965 4.20831C25.1849 3.04892 23.3696 2.32797 21.4581 2.12785C19.5466 1.92773 17.6159 2.25651 15.8868 3.07662C14.1577 3.89673 12.6999 5.17508 11.6799 6.76556C10.66 8.35605 10.1191 10.1945 10.1191 12.0708C10.1191 13.9471 10.66 15.7856 11.6799 17.3761C12.6999 18.9665 14.1577 20.2449 15.8868 21.065C17.6159 21.8851 19.5466 22.2139 21.4581 22.0138C23.3696 21.8136 25.1849 21.0927 26.6965 19.9333C25.4757 18.9981 24.4889 17.8041 23.8109 16.4417C23.1329 15.0792 22.7814 13.5841 22.783 12.0694V12.0694Z" fill="#EB001B"/>
<path d="M42.296 18.2668V17.9446H42.4383V17.8779H42.0996V17.9446H42.2334V18.2668H42.296ZM42.9535 18.2668V17.8779H42.851L42.7315 18.1557L42.6119 17.8779H42.5095V18.2668H42.5835V17.9724L42.6945 18.2252H42.7713L42.8823 17.9724V18.2668H42.9535Z" fill="#F79E1B"/>
<path d="M43.2751 12.0694C43.2751 13.9459 42.7341 15.7845 41.714 17.375C40.6939 18.9655 39.2358 20.2439 37.5065 21.0639C35.7771 21.8839 33.8463 22.2124 31.9347 22.012C30.023 21.8116 28.2077 21.0903 26.6963 19.9306C27.9162 18.9948 28.9025 17.8009 29.5807 16.4389C30.2589 15.0769 30.6113 13.5824 30.6113 12.0681C30.6113 10.5537 30.2589 9.05919 29.5807 7.69718C28.9025 6.33517 27.9162 5.14127 26.6963 4.20556C28.2077 3.04581 30.023 2.32451 31.9347 2.1241C33.8463 1.92369 35.7771 2.25226 37.5065 3.07225C39.2358 3.89224 40.6939 5.17057 41.714 6.76111C42.7341 8.35165 43.2751 10.1902 43.2751 12.0667V12.0694Z" fill="#F79E1B"/>
</svg>
