<svg width="43" height="14" viewBox="0 0 43 14" fill="none" xmlns="http://www.w3.org/2000/svg">
<path d="M16.3266 0.246128L10.6962 13.7877H7.02333L4.25297 2.9829C4.085 2.31677 3.93943 2.0729 3.42656 1.7929C2.5912 1.33677 1.21161 0.907741 0 0.641289L0.0828649 0.248387H5.99536C6.74786 0.248387 7.42646 0.754192 7.59667 1.63032L9.05912 9.4658L12.676 0.248387L16.3266 0.246128ZM30.7159 9.36871C30.7316 5.79419 25.8134 5.59774 25.847 4.00129C25.8582 3.5158 26.3173 2.99871 27.3207 2.86774C27.8179 2.80226 29.1907 2.75258 30.745 3.4729L31.3542 0.600644C30.5188 0.295806 29.4416 0 28.1045 0C24.6712 0 22.2525 1.84032 22.2323 4.47548C22.2099 6.42419 23.9568 7.51258 25.2737 8.16064C26.6286 8.82451 27.0833 9.25129 27.0766 9.8429C27.0676 10.7506 25.9971 11.1526 24.996 11.1684C23.2491 11.1955 22.2368 10.6919 21.4283 10.3126L20.799 13.2797C21.6097 13.6545 23.1103 13.9819 24.6623 14C28.3173 14.0023 30.7047 12.1823 30.7159 9.36871ZM39.7862 13.79H43L40.1938 0.246128H37.2286C36.5612 0.246128 35.9991 0.636773 35.7505 1.23968L30.5367 13.7877H34.185L34.9084 11.7645H39.3674L39.7862 13.79ZM35.9095 8.99161L37.7392 3.90645L38.7918 8.99161H35.9095ZM21.2895 0.246128L18.4161 13.7877H14.9425L17.8159 0.246128H21.2895Z" fill="white"/>
</svg>
