<svg width="96" height="24" viewBox="0 0 96 24" fill="none" xmlns="http://www.w3.org/2000/svg">
<g clip-path="url(#clip0_1661_1132)">
<path fill-rule="evenodd" clip-rule="evenodd" d="M61.0854 11.5444C61.0854 12.1966 61.1858 12.8002 61.3871 13.3556C61.5879 13.9109 61.881 14.3957 62.2659 14.8099C62.6504 15.2241 63.1095 15.5501 63.6433 15.788C64.1766 16.0261 64.7755 16.1452 65.4403 16.1452C66.1048 16.1452 66.7037 16.0261 67.2374 15.788C67.7708 15.5501 68.2299 15.2241 68.6148 14.8099C68.9993 14.3957 69.2924 13.9109 69.4936 13.3556C69.6944 12.8002 69.7953 12.1966 69.7953 11.5444C69.7953 10.8925 69.6944 10.2885 69.4936 9.73313C69.2924 9.17786 68.9993 8.6934 68.6148 8.27895C68.2299 7.86503 67.7708 7.53859 67.2374 7.30069C66.7037 7.06266 66.1048 6.94371 65.4403 6.94371C64.7755 6.94371 64.1766 7.06266 63.6433 7.30069C63.1095 7.53859 62.6504 7.86503 62.2659 8.27895C61.881 8.6934 61.5879 9.17786 61.3871 9.73313C61.1858 10.2885 61.0854 10.8925 61.0854 11.5444ZM59.0391 5.35724H61.0854V7.1552H61.1378C61.6974 6.48552 62.3487 5.96545 63.0923 5.59527C63.8355 5.22509 64.6533 5.04 65.5453 5.04C66.5069 5.04 67.3859 5.20322 68.1819 5.52913C68.9776 5.85557 69.6551 6.3091 70.2151 6.8909C70.7746 7.47244 71.2119 8.16 71.5268 8.95317C71.8416 9.74647 71.9991 10.6103 71.9991 11.5444C71.9991 12.479 71.8416 13.3423 71.5268 14.1356C71.2119 14.9287 70.7791 15.6163 70.2282 16.1978C69.6772 16.7796 69.0255 17.2338 68.2738 17.5597C67.5215 17.8855 66.7169 18.0487 65.86 18.0487C64.7583 18.0487 63.7916 17.8064 62.9612 17.3217C62.1303 16.837 61.5224 16.2421 61.1378 15.5369H61.0854V23.76H59.0391V5.35724Z" fill="white"/>
<path fill-rule="evenodd" clip-rule="evenodd" d="M89.772 20.2434C89.5601 20.7723 89.3435 21.2522 89.1229 21.6844C88.9019 22.1162 88.6369 22.4862 88.3281 22.7949C88.0188 23.1031 87.6479 23.3411 87.2154 23.5089C86.7823 23.6761 86.2571 23.76 85.639 23.76C85.3385 23.76 85.0251 23.7423 84.6986 23.7072C84.3715 23.6717 84.0668 23.5836 83.7844 23.4428L84.0493 21.6448C84.2614 21.7328 84.482 21.7903 84.7118 21.8167C84.9411 21.8431 85.206 21.8564 85.5066 21.8564C86.1776 21.8564 86.6722 21.6712 86.9901 21.3011C87.3081 20.931 87.5816 20.4372 87.8115 19.8204L88.6593 17.4936L83.5195 5.04H85.9305L89.772 14.7438H89.8249L93.5077 5.04H95.7595L89.772 20.2434Z" fill="white"/>
<path fill-rule="evenodd" clip-rule="evenodd" d="M3.95399 13.9085C4.16155 14.3262 4.43714 14.6645 4.78062 14.9234C5.12398 15.1826 5.52698 15.3744 5.99055 15.4999C6.45359 15.6251 6.93288 15.6877 7.42813 15.6877C7.7635 15.6877 8.12296 15.6586 8.50626 15.6C8.88955 15.5416 9.24889 15.4289 9.58438 15.2617C9.91975 15.0949 10.1991 14.8651 10.423 14.5726C10.6464 14.2805 10.7584 13.9085 10.7584 13.4573C10.7584 12.9731 10.6105 12.5804 10.315 12.2795C10.0193 11.9788 9.63218 11.7282 9.15316 11.5276C8.67401 11.3272 8.13069 11.1518 7.52386 11.0015C6.91677 10.8511 6.30208 10.6843 5.67914 10.5002C5.0401 10.3334 4.41716 10.1287 3.81046 9.88624C3.20324 9.64435 2.66032 9.33103 2.18129 8.94655C1.70201 8.56248 1.31446 8.08192 1.01916 7.50555C0.72335 6.92917 0.57583 6.23178 0.57583 5.41297C0.57583 4.49443 0.763419 3.69651 1.13886 3.01974C1.51404 2.34323 2.0053 1.77926 2.61226 1.32821C3.21922 0.877163 3.90619 0.543089 4.67278 0.325719C5.43937 0.108887 6.20622 0 6.97282 0C7.86722 0 8.72567 0.104575 9.54844 0.313321C10.3708 0.522336 11.1017 0.860722 11.7408 1.32821C12.3794 1.79624 12.8867 2.39323 13.2621 3.12C13.637 3.84663 13.825 4.72811 13.825 5.76389H10.1832C10.1511 5.22929 10.0433 4.78646 9.85997 4.43568C9.67599 4.08489 9.43248 3.80917 9.12907 3.60865C8.82565 3.40825 8.47804 3.26649 8.08702 3.18266C7.69535 3.09925 7.26824 3.05747 6.80507 3.05747C6.50152 3.05747 6.19785 3.09116 5.89469 3.1576C5.59128 3.22457 5.31569 3.34155 5.06806 3.50838C4.82043 3.67562 4.61674 3.88437 4.45723 4.13489C4.29734 4.38555 4.21772 4.70318 4.21772 5.08725C4.21772 5.43817 4.28137 5.72238 4.40931 5.93935C4.53686 6.15658 4.78861 6.35711 5.16417 6.54079C5.53909 6.72474 6.05832 6.90842 6.72132 7.0921C7.38394 7.27605 8.25051 7.50986 9.32091 7.79367C9.64017 7.86064 10.0832 7.98166 10.6505 8.15712C11.2173 8.33258 11.7803 8.61248 12.3395 8.99668C12.8986 9.38116 13.3819 9.89487 13.7892 10.5378C14.1964 11.1812 14.4 12.0039 14.4 13.0064C14.4 13.8251 14.2481 14.5851 13.9447 15.2868C13.6411 15.9885 13.1902 16.5943 12.5911 17.1035C11.9923 17.6135 11.2495 18.0102 10.3631 18.2939C9.47667 18.5778 8.45008 18.72 7.28435 18.72C6.34163 18.72 5.42765 18.5986 4.54111 18.3565C3.6547 18.1146 2.87187 17.7345 2.19315 17.2163C1.51404 16.6987 0.974973 16.0386 0.57583 15.2365C0.176558 14.4347 -0.0152838 13.4825 0.000949937 12.3797H3.64258C3.64258 12.9812 3.7463 13.491 3.95399 13.9085Z" fill="white"/>
<path fill-rule="evenodd" clip-rule="evenodd" d="M22.1298 5.04C22.7613 5.04 23.4005 5.08638 24.0483 5.17834C24.6957 5.2707 25.2869 5.45109 25.8212 5.71912C26.3554 5.98741 26.7925 6.36024 27.1327 6.83813C27.4726 7.3159 27.6426 7.9489 27.6426 8.73661V15.5013C27.6426 16.0883 27.6749 16.6498 27.7398 17.1861C27.8044 17.7228 27.9178 18.1251 28.0798 18.3932H24.5826C24.5178 18.1921 24.465 17.9868 24.4249 17.7771C24.3842 17.5676 24.3559 17.3538 24.3398 17.1358C23.7893 17.7228 23.1416 18.1334 22.3969 18.3679C21.6521 18.6026 20.8912 18.72 20.1142 18.72C19.515 18.72 18.9564 18.6445 18.4383 18.4938C17.9201 18.3428 17.467 18.1082 17.0784 17.7896C16.6899 17.4713 16.3863 17.069 16.1678 16.5824C15.9493 16.0964 15.8398 15.5182 15.8398 14.8475C15.8398 14.1098 15.9651 13.5021 16.2164 13.0243C16.4671 12.5465 16.7907 12.1653 17.1876 11.88C17.5842 11.5952 18.0377 11.3814 18.5478 11.2387C19.0578 11.0966 19.5715 10.9834 20.0898 10.8993C20.6078 10.8156 21.1178 10.7484 21.6198 10.6982C22.1215 10.6478 22.5669 10.5725 22.9555 10.4719C23.344 10.3713 23.6515 10.2247 23.8784 10.0317C24.1048 9.83926 24.2101 9.55826 24.194 9.18935C24.194 8.80395 24.1334 8.4978 24.012 8.27142C23.8907 8.04505 23.7286 7.86912 23.5263 7.74336C23.3236 7.61759 23.0891 7.53389 22.822 7.49197C22.5548 7.45018 22.2672 7.42908 21.9599 7.42908C21.28 7.42908 20.7455 7.57986 20.357 7.88169C19.9684 8.18339 19.7414 8.68644 19.6769 9.39044H16.2284C16.277 8.55229 16.4792 7.85654 16.8355 7.30332C17.1915 6.7501 17.645 6.30601 18.1956 5.97051C18.7459 5.63541 19.3651 5.39633 20.0534 5.2538C20.7414 5.11167 21.4336 5.04 22.1298 5.04ZM24.194 12.0309C24.0483 12.1653 23.8664 12.2699 23.6476 12.3453C23.4291 12.4208 23.1943 12.4837 22.9433 12.534C22.6922 12.5841 22.4291 12.6262 22.1541 12.6595C21.8787 12.6934 21.6036 12.735 21.3283 12.7854C21.0691 12.8357 20.8142 12.9027 20.5634 12.9864C20.3122 13.0706 20.0937 13.1837 19.9078 13.326C19.7213 13.4687 19.5715 13.6491 19.4584 13.8666C19.345 14.0848 19.2884 14.3613 19.2884 14.6965C19.2884 15.0151 19.345 15.2836 19.4584 15.5013C19.5715 15.7193 19.7256 15.891 19.92 16.0168C20.1142 16.1425 20.3408 16.2306 20.5999 16.2809C20.8586 16.3311 21.1257 16.3562 21.4013 16.3562C22.0814 16.3562 22.6073 16.2391 22.9799 16.0042C23.3521 15.7696 23.6272 15.4886 23.8055 15.1617C23.9835 14.8347 24.0927 14.504 24.1334 14.1685C24.1737 13.8332 24.194 13.5649 24.194 13.3636V12.0309Z" fill="white"/>
<path fill-rule="evenodd" clip-rule="evenodd" d="M28.8008 7.78687V5.48773H30.8225V4.51958C30.8225 3.40632 31.1632 2.49492 31.845 1.78485C32.5267 1.07504 33.5576 0.72 34.937 0.72C35.2381 0.72 35.5394 0.731973 35.8407 0.75631C36.1418 0.780517 36.4353 0.80082 36.7208 0.816698V3.38212C36.3242 3.3337 35.9122 3.30949 35.484 3.30949C35.0239 3.30949 34.695 3.41843 34.4971 3.63616C34.2986 3.85402 34.1998 4.22129 34.1998 4.73744V5.48773H36.5305V7.78687H34.1998V18H30.8225V7.78687H28.8008Z" fill="white"/>
<path fill-rule="evenodd" clip-rule="evenodd" d="M40.6502 5.38177V7.72479H40.6979C40.8563 7.33433 41.0702 6.97248 41.34 6.63872C41.6095 6.30548 41.9186 6.02055 42.2675 5.78443C42.6161 5.54871 42.9888 5.36575 43.3855 5.2353C43.7816 5.10523 44.194 5.04 44.6222 5.04C44.844 5.04 45.0897 5.08095 45.3595 5.16206V8.38378C45.2009 8.35137 45.0104 8.32288 44.7888 8.29834C44.5665 8.27393 44.3522 8.26185 44.1465 8.26185C43.5281 8.26185 43.005 8.36777 42.5768 8.57908C42.1486 8.79065 41.8039 9.07939 41.5422 9.44544C41.2806 9.81149 41.094 10.2387 40.9833 10.7268C40.8721 11.2149 40.8167 11.744 40.8167 12.3133V18H37.4395V5.38177H40.6502Z" fill="white"/>
<path fill-rule="evenodd" clip-rule="evenodd" d="M81.1215 15.1516C80.8289 15.485 80.4624 15.7539 80.0219 15.9551C79.5825 16.1583 79.0681 16.2584 78.4798 16.2584C77.7214 16.2584 77.0865 16.0961 76.5774 15.7711C76.0685 15.4463 75.8138 14.8966 75.8138 14.1221C75.8138 13.2788 76.1941 12.6711 76.9525 12.303C77.7129 11.933 78.7407 11.749 80.0346 11.749H82.0541V12.5409C82.0373 13.0496 81.9516 13.5283 81.7964 13.978C81.6401 14.4255 81.4161 14.818 81.1215 15.1516ZM86.9868 15.9325H84.2871C84.1698 15.9325 84.0737 15.8358 84.0737 15.7151V10.2452C84.0737 8.4875 83.6765 7.17734 82.8822 6.3157C82.088 5.45526 80.794 5.04 78.9995 5.04H71.2793C71.6036 5.27982 71.8857 5.53054 72.1623 5.8209C72.4677 6.14146 72.7434 6.48901 72.9905 6.86224H79.6459C80.3134 6.96878 80.8543 7.2505 81.2651 7.60763C81.7911 8.06599 82.0541 8.74248 82.0541 9.63857V10.0075H81.2768C80.5353 10.0075 79.7188 10.0431 78.8305 10.1139C77.9411 10.185 77.1131 10.3604 76.3441 10.6411C75.5773 10.9229 74.933 11.3532 74.4164 11.933C73.8968 12.5128 73.6389 13.3132 73.6389 14.3341C73.6389 14.931 73.7585 15.4582 74.0003 15.9152C74.2422 16.3735 74.5664 16.7554 74.972 17.0631C75.3776 17.3697 75.853 17.604 76.3969 17.7622C76.9408 17.9203 77.5217 18 78.1439 18C79.0766 18 79.8741 17.7968 80.5405 17.3923C81.168 17.0104 81.676 16.5262 82.0658 15.9401C82.1766 17.0931 83.1389 17.9988 84.2966 17.9988H87.8393L86.9868 15.9325Z" fill="white"/>
<path fill-rule="evenodd" clip-rule="evenodd" d="M52.3701 5.04C53.0016 5.04 53.6409 5.08638 54.2887 5.17834C54.936 5.2707 55.5272 5.45109 56.0615 5.71912C56.5958 5.98741 57.0329 6.36024 57.373 6.83813C57.7129 7.3159 57.883 7.9489 57.883 8.73661V15.5013C57.883 16.0883 57.9152 16.6498 57.98 17.1861C58.0448 17.7228 58.158 18.1251 58.3201 18.3932H54.8229C54.7582 18.1921 54.7054 17.9868 54.6653 17.7771C54.6246 17.5676 54.5961 17.3538 54.5802 17.1358C54.0297 17.7228 53.3819 18.1334 52.6373 18.3679C51.8925 18.6026 51.1315 18.72 50.3544 18.72C49.7554 18.72 49.1968 18.6445 48.6787 18.4938C48.1604 18.3428 47.7072 18.1082 47.3187 17.7896C46.9301 17.4713 46.6265 17.069 46.4081 16.5824C46.1895 16.0964 46.0801 15.5182 46.0801 14.8475C46.0801 14.1098 46.2055 13.5021 46.4567 13.0243C46.7073 12.5465 47.0311 12.1653 47.428 11.88C47.8246 11.5952 48.278 11.3814 48.7882 11.2387C49.298 11.0966 49.8119 10.9834 50.3301 10.8993C50.8482 10.8156 51.3581 10.7484 51.8602 10.6982C52.3618 10.6478 52.8073 10.5725 53.1958 10.4719C53.5843 10.3713 53.8919 10.2247 54.1188 10.0317C54.3452 9.83926 54.4505 9.55826 54.4344 9.18935C54.4344 8.80395 54.3738 8.4978 54.2524 8.27142C54.1309 8.04505 53.9688 7.86912 53.7665 7.74336C53.5638 7.61759 53.3294 7.53389 53.0622 7.49197C52.7951 7.45018 52.5076 7.42908 52.2003 7.42908C51.5203 7.42908 50.9858 7.57986 50.5973 7.88169C50.2088 8.18339 49.9817 8.68644 49.9173 9.39044H46.4686C46.5173 8.55229 46.7196 7.85654 47.0759 7.30332C47.4318 6.7501 47.8852 6.30601 48.4358 5.97051C48.9861 5.63541 49.6053 5.39633 50.2938 5.2538C50.9818 5.11167 51.6738 5.04 52.3701 5.04ZM54.4344 12.0309C54.2887 12.1653 54.1066 12.2699 53.888 12.3453C53.6695 12.4208 53.4346 12.4837 53.1837 12.534C52.9325 12.5841 52.6695 12.6262 52.3943 12.6595C52.119 12.6934 51.844 12.735 51.5687 12.7854C51.3095 12.8357 51.0545 12.9027 50.8038 12.9864C50.5525 13.0706 50.334 13.1837 50.1481 13.326C49.9617 13.4687 49.8119 13.6491 49.6988 13.8666C49.5853 14.0848 49.5288 14.3613 49.5288 14.6965C49.5288 15.0151 49.5853 15.2836 49.6988 15.5013C49.8119 15.7193 49.9659 15.891 50.1602 16.0168C50.3544 16.1425 50.581 16.2306 50.8402 16.2809C51.0989 16.3311 51.366 16.3562 51.6417 16.3562C52.3216 16.3562 52.8476 16.2391 53.2201 16.0042C53.5924 15.7696 53.8675 15.4886 54.0459 15.1617C54.2239 14.8347 54.3331 14.504 54.3738 14.1685C54.4139 13.8332 54.4344 13.5649 54.4344 13.3636V12.0309Z" fill="white"/>
</g>
<defs>
<clipPath id="clip0_1661_1132">
<rect width="96" height="24" fill="white"/>
</clipPath>
</defs>
</svg>
