<svg width="55" height="55" viewBox="0 0 55 55" fill="none" xmlns="http://www.w3.org/2000/svg">
<path d="M43.7631 42.8331H11.406C9.53271 42.8331 8 41.2888 8 39.4015V17.0961C8 15.2088 9.53271 13.6646 11.406 13.6646H43.7631C45.6364 13.6646 47.1691 15.2088 47.1691 17.0961V39.4015C47.1691 41.2888 45.6364 42.8331 43.7631 42.8331Z" stroke="#36C5F3" stroke-width="2" stroke-miterlimit="10" stroke-linecap="round" stroke-linejoin="round"/>
<path d="M47.1691 17.8314L44.4324 21.1649C42.893 23.1258 41.0115 24.4984 38.788 25.2828L31.9462 27.8321V25.8711C31.9462 24.8907 31.262 23.9102 30.4068 23.9102H30.2357H25.1044C24.2492 23.9102 23.394 24.6946 23.394 25.6751V25.8711V27.8321L16.5522 25.2828C14.3286 24.4984 12.2761 23.1258 10.7367 21.1649L8 17.8314" stroke="#36C5F3" stroke-width="2" stroke-miterlimit="10" stroke-linecap="round" stroke-linejoin="round"/>
<path d="M33.0012 6.16406H21.3338C20.5004 6.16406 19.667 6.91416 19.667 7.85172V8.03918V13.6645H34.6679V8.03918C34.6679 7.10162 34.0012 6.16406 33.1678 6.16406C33.1678 6.16406 33.1678 6.16406 33.0012 6.16406Z" stroke="#36C5F3" stroke-width="2" stroke-miterlimit="10" stroke-linecap="round" stroke-linejoin="round"/>
<path d="M30.3348 30.3322H24.8344C23.9177 30.3322 23.001 29.6655 23.001 28.8321V28.6655V25.3319C23.001 24.4985 23.7343 23.6652 24.6511 23.6652H24.8344H30.3348C31.2515 23.6652 32.1682 24.3319 32.1682 25.1653V25.3319V28.6655C32.1682 29.4989 31.4348 30.3322 30.5181 30.3322C30.5181 30.3322 30.5181 30.3322 30.3348 30.3322Z" stroke="#36C5F3" stroke-width="2" stroke-miterlimit="10" stroke-linecap="round" stroke-linejoin="round"/>
</svg>
