<svg width="55" height="55" viewBox="0 0 55 55" fill="none" xmlns="http://www.w3.org/2000/svg">
<path d="M23.6583 10.7721V21.2304L13.7229 37.0921C13.7229 37.0921 10.5854 44.5872 17.3833 46.3303H28.3645" stroke="#36C5F3" stroke-width="2" stroke-miterlimit="10" stroke-linecap="round" stroke-linejoin="round"/>
<path d="M32.0256 10.7722V21.2305L41.9609 37.0922C41.9609 37.0922 45.0984 44.5874 38.3005 46.3304H27.3193" stroke="#36C5F3" stroke-width="2" stroke-miterlimit="10" stroke-linecap="round" stroke-linejoin="round"/>
<path d="M26.2754 11.1644H23.2372C22.0557 11.1644 21.043 10.0105 21.043 8.66422C21.043 7.31798 22.0557 6.16406 23.2372 6.16406H32.1829C33.3644 6.16406 34.3771 7.31798 34.3771 8.66422C34.3771 10.0105 33.3644 11.1644 32.1829 11.1644H29.6511" stroke="#36C5F3" stroke-width="2" stroke-miterlimit="10" stroke-linecap="round" stroke-linejoin="round"/>
<path d="M17.709 31.1656C17.709 31.1656 21.833 27.734 27.8471 27.9056C32.4866 28.0772 34.3767 25.3319 34.3767 25.3319" stroke="#36C5F3" stroke-width="2" stroke-miterlimit="10" stroke-linecap="round" stroke-linejoin="round"/>
</svg>
