<svg width="55" height="55" viewBox="0 0 55 55" fill="none" xmlns="http://www.w3.org/2000/svg">
<path d="M27.6681 23.6652C24.0012 23.6652 21.001 20.515 21.001 16.6647V13.1645C21.001 9.31426 24.0012 6.16406 27.6681 6.16406C31.335 6.16406 34.3352 9.31426 34.3352 13.1645V16.6647C34.3352 20.515 31.335 23.6652 27.6681 23.6652Z" stroke="#36C5F3" stroke-width="2" stroke-miterlimit="10" stroke-linecap="round" stroke-linejoin="round"/>
<path d="M21.1445 29.4989C21.4877 29.4989 21.8309 29.6655 22.1741 29.9988C23.547 31.8323 25.6062 32.8324 27.837 32.8324C30.0678 32.8324 32.1271 31.8323 33.4999 29.9988C33.6715 29.6655 34.1862 29.4989 34.5294 29.4989C40.3639 29.4989 45.1688 34.1658 45.1688 39.8328V44.4999C45.1688 45.4999 44.4824 46.1666 43.4528 46.1666H12.736C11.7064 46.1666 11.02 45.4999 11.02 44.4999V39.8328C10.6768 34.4991 14.7952 29.8323 20.2865 29.4989C20.6297 29.4989 20.8013 29.4989 21.1445 29.4989Z" stroke="#36C5F3" stroke-width="2" stroke-miterlimit="10" stroke-linecap="round" stroke-linejoin="round"/>
</svg>
