<svg width="55" height="55" viewBox="0 0 55 55" fill="none" xmlns="http://www.w3.org/2000/svg">
<path d="M27.4011 22.0823C27.2268 23.2177 26.3553 24.3531 24.9608 24.8397C24.2636 25.1641 23.3921 25.3263 22.6949 25.3263C20.2546 25.3263 18.1629 24.0287 17.9886 22.0823C17.8143 23.2177 16.9428 24.3531 15.7227 24.8397C15.0255 25.1641 14.1539 25.3263 13.2824 25.3263C10.8422 25.3263 8.75048 24.0287 8.57617 22.0823" stroke="#36C5F3" stroke-width="2" stroke-miterlimit="10" stroke-linecap="round" stroke-linejoin="round"/>
<path d="M46.574 22.0825C46.3997 23.2179 45.5281 24.3533 44.1337 24.8399C43.4364 25.1643 42.5649 25.3265 41.8677 25.3265C39.4275 25.3265 37.3358 24.0289 37.1615 22.0825C36.9872 23.2179 36.1157 24.3533 34.8955 24.8399C34.1983 25.1643 33.3268 25.3265 32.4553 25.3265C30.015 25.3265 27.9233 24.0289 27.749 22.0825" stroke="#36C5F3" stroke-width="2" stroke-miterlimit="10" stroke-linecap="round" stroke-linejoin="round"/>
<path d="M8 22.1837L12.0764 10.1536C12.2536 9.49439 12.9626 9 13.8488 9H41.3203C42.0293 9 42.7382 9.49439 43.0927 10.1536L47.1691 22.1837" stroke="#36C5F3" stroke-width="2" stroke-miterlimit="10" stroke-linecap="round" stroke-linejoin="round"/>
<path d="M43.836 26.0612V45.3892C43.836 46.1946 43.1518 46.9999 42.2965 46.9999H42.1254H13.0446C12.1893 46.9999 11.334 46.3556 11.334 45.5503V45.3892V26.0612" stroke="#36C5F3" stroke-width="2" stroke-miterlimit="10" stroke-linecap="round" stroke-linejoin="round"/>
<path d="M36.3353 38.4695H33.0017C32.1683 38.4695 31.335 37.849 31.335 37.0735V36.9184V32.2654C31.335 31.4899 32.0017 30.7144 32.835 30.7144H33.0017H36.3353C37.1687 30.7144 38.002 31.3348 38.002 32.1103V32.2654V36.9184C38.002 37.6939 37.3354 38.4695 36.502 38.4695C36.502 38.4695 36.502 38.4695 36.3353 38.4695Z" stroke="#36C5F3" stroke-width="2" stroke-miterlimit="10" stroke-linecap="round" stroke-linejoin="round"/>
<path d="M23.8339 47.0001H15.5V32.3429C15.5 31.5286 16.1667 30.7144 17.0001 30.7144H17.1668H22.1671C23.0005 30.7144 23.8339 31.3658 23.8339 32.1801V32.3429V47.0001Z" stroke="#36C5F3" stroke-width="2" stroke-miterlimit="10" stroke-linecap="round" stroke-linejoin="round"/>
</svg>
