<svg width="412" height="289" viewBox="0 0 412 289" fill="none" xmlns="http://www.w3.org/2000/svg">
<rect width="412" height="288.812" rx="20" fill="#D1E8F5"/>
<path fill-rule="evenodd" clip-rule="evenodd" d="M263.025 41.5174L263.196 41.4667C257.363 40.7737 252.527 36.5903 251.04 30.8913L250.348 28.3087L250.155 30.797C249.71 36.6552 245.732 41.6625 240.106 43.4039L239.935 43.4545C245.767 44.1476 250.604 48.331 252.09 54.03L252.783 56.6125L252.976 54.1242C253.419 48.2487 257.398 43.2587 263.025 41.5174Z" fill="#36C5F3"/>
<path fill-rule="evenodd" clip-rule="evenodd" d="M248.793 146.277L248.896 146.25C245.404 145.833 242.527 143.328 241.619 139.924L241.213 138.367L241.103 139.849C240.829 143.361 238.455 146.346 235.096 147.39L234.994 147.417C238.486 147.833 241.363 150.338 242.271 153.742L242.677 155.3L242.786 153.818C243.043 150.307 245.416 147.304 248.793 146.277Z" fill="#36C5F3"/>
<path fill-rule="evenodd" clip-rule="evenodd" d="M286.57 83.4929L286.673 83.466C283.181 83.0495 280.304 80.5442 279.396 77.1402L278.99 75.5828L278.88 77.0647C278.623 80.5752 276.232 83.5626 272.873 84.6058L272.77 84.6327C276.263 85.0491 279.14 87.5545 280.048 90.9584L280.453 92.5158L280.563 91.0339C280.838 87.5218 283.212 84.5361 286.57 83.4929Z" fill="#36C5F3"/>
<path d="M37.3367 57.4871V39.3372H42.8385V57.4871H37.3367Z" fill="#FF41AD"/>
<path d="M57.9778 57.4869L51.277 48.2876V57.4869H45.7751V39.337H51.4396L57.7593 47.9373V39.337H63.2612V57.4869H57.9778Z" fill="#FF41AD"/>
<path d="M66.197 57.4869V39.337H74.31C80.0303 39.337 84.2774 42.6015 84.2774 48.3993C84.2774 54.1971 80.0303 57.4869 74.3354 57.4869H66.1919H66.197ZM78.6943 48.3993C78.6943 45.9522 77.2769 44.1245 74.3354 44.1245H71.6937V52.6994H74.31C77.0584 52.6994 78.6943 50.6839 78.6943 48.3993Z" fill="#FF41AD"/>
<path d="M86.2397 57.4872V39.3373H91.7416V57.4872H86.2397Z" fill="#FF41AD"/>
<path d="M93.6953 48.4244C93.6953 42.8195 97.9982 39.0372 103.688 39.0372C108.453 39.0372 110.851 41.8143 111.938 44.3172L107.198 46.5206C106.736 45.1041 105.319 43.8806 103.683 43.8806C101.041 43.8806 99.2734 45.8961 99.2734 48.4244C99.2734 50.9527 101.041 52.9682 103.683 52.9682C105.319 52.9682 106.731 51.7447 107.198 50.3282L111.938 52.5062C110.877 54.9279 108.453 57.8116 103.688 57.8116C97.9982 57.8116 93.6953 54.0039 93.6953 48.4244Z" fill="#FF41AD"/>
<path d="M112.678 48.4248C112.678 42.8453 117.006 39.0376 122.62 39.0376C128.234 39.0376 132.562 42.8453 132.562 48.4248C132.562 54.0043 128.234 57.812 122.62 57.812C117.006 57.812 112.678 54.0043 112.678 48.4248ZM126.974 48.4248C126.974 45.8914 125.257 43.881 122.615 43.881C119.973 43.881 118.256 45.8965 118.256 48.4248C118.256 50.9531 119.973 52.9686 122.615 52.9686C125.257 52.9686 126.974 50.9531 126.974 48.4248Z" fill="#FF41AD"/>
<path d="M134.516 50.0341V39.337H140.099V49.8411C140.099 51.5825 141.242 52.9685 143.502 52.9685C145.763 52.9685 146.881 51.5825 146.881 49.8411V39.337H152.464V50.0036C152.464 54.522 149.634 57.8119 143.502 57.8119C137.371 57.8119 134.516 54.5169 134.516 50.029V50.0341Z" fill="#FF41AD"/>
<path d="M156.649 61.4872L154.662 59.8829C155.536 59.5022 156.786 58.304 157.142 57.2683C157.004 57.3242 156.735 57.3749 156.435 57.3749C155.13 57.3749 154.068 56.3697 154.068 54.8416C154.068 53.3134 155.374 51.9833 156.898 51.9833C158.559 51.9833 160.058 53.2627 160.058 55.4965C160.058 57.8928 158.777 59.9845 156.654 61.4821L156.649 61.4872Z" fill="#FF41AD"/>
<path d="M49.4549 83.8868L48.7996 81.7647H42.2664L41.6111 83.8868H35.3777L42.0785 65.7369H48.9977L55.6985 83.8868H49.46H49.4549ZM45.533 71.1235L43.7346 76.9721H47.3314L45.533 71.1235Z" fill="#FF41AD"/>
<path d="M55.2791 81.3328L58.1392 77.251C59.5007 78.5558 61.5429 79.5915 63.9916 79.5915C65.0279 79.5915 66.0084 79.3173 66.0084 78.6116C66.0084 76.8702 55.8785 78.637 55.8785 71.4836C55.8785 68.4071 58.4389 65.4675 63.4226 65.4675C66.3894 65.4675 69.0616 66.3103 71.1293 68.0009L68.1878 71.8949C66.6079 70.6967 64.5656 70.0977 62.8485 70.0977C61.7614 70.0977 61.4616 70.453 61.4616 70.915C61.4616 72.631 71.5662 71.1587 71.5662 77.911C71.5662 81.9116 68.5993 84.2267 63.7223 84.2267C59.8563 84.2267 57.2146 83.0844 55.2791 81.343V81.3328Z" fill="#FF41AD"/>
<path d="M71.9697 81.3332L74.8299 77.2514C76.1914 78.5561 78.2336 79.5918 80.6823 79.5918C81.7186 79.5918 82.6991 79.3177 82.6991 78.612C82.6991 76.8706 72.5692 78.6374 72.5692 71.484C72.5692 68.4074 75.1296 65.4679 80.1133 65.4679C83.0801 65.4679 85.7523 66.3107 87.8199 68.0013L84.8785 71.8952C83.2986 70.6971 81.2563 70.098 79.5392 70.098C78.4521 70.098 78.1523 70.4534 78.1523 70.9154C78.1523 72.6314 88.2568 71.1591 88.2568 77.9114C88.2568 81.912 85.29 84.227 80.413 84.227C76.547 84.227 73.9053 83.0847 71.9697 81.3433V81.3332Z" fill="#FF41AD"/>
<path d="M89.0671 74.8244C89.0671 69.2449 93.3955 65.4373 99.0091 65.4373C104.623 65.4373 108.951 69.2449 108.951 74.8244C108.951 80.4039 104.623 84.2116 99.0091 84.2116C93.3955 84.2116 89.0671 80.4039 89.0671 74.8244ZM103.363 74.8244C103.363 72.2911 101.646 70.2806 99.004 70.2806C96.3623 70.2806 94.6452 72.2961 94.6452 74.8244C94.6452 77.3527 96.3623 79.3683 99.004 79.3683C101.646 79.3683 103.363 77.3527 103.363 74.8244Z" fill="#FF41AD"/>
<path d="M109.927 74.8244C109.927 69.2195 114.23 65.4373 119.92 65.4373C124.685 65.4373 127.083 68.2143 128.17 70.7172L123.43 72.9206C122.968 71.5041 121.55 70.2806 119.915 70.2806C117.273 70.2806 115.505 72.2961 115.505 74.8244C115.505 77.3527 117.273 79.3683 119.915 79.3683C121.55 79.3683 122.963 78.1447 123.43 76.7283L128.17 78.9063C127.108 81.3279 124.685 84.2116 119.92 84.2116C114.23 84.2116 109.927 80.4039 109.927 74.8244Z" fill="#FF41AD"/>
<path d="M129.882 83.8866V65.7367H135.383V83.8866H129.882Z" fill="#FF41AD"/>
<path d="M137.345 74.8244C137.345 69.2449 141.674 65.4373 147.287 65.4373C152.901 65.4373 157.229 69.2449 157.229 74.8244C157.229 80.4039 152.901 84.2116 147.287 84.2116C141.674 84.2116 137.345 80.4039 137.345 74.8244ZM151.641 74.8244C151.641 72.2911 149.924 70.2806 147.282 70.2806C144.641 70.2806 142.924 72.2961 142.924 74.8244C142.924 77.3527 144.641 79.3683 147.282 79.3683C149.924 79.3683 151.641 77.3527 151.641 74.8244Z" fill="#FF41AD"/>
<path d="M159.18 76.434V65.7369H164.763V76.241C164.763 77.9824 165.906 79.3684 168.167 79.3684C170.427 79.3684 171.545 77.9824 171.545 76.241V65.7369H177.128V76.4035C177.128 80.9219 174.299 84.2118 168.167 84.2118C162.035 84.2118 159.18 80.9169 159.18 76.4289V76.434Z" fill="#FF41AD"/>
<path d="M36.332 103.702C36.332 99.8942 39.2481 96.8176 43.4951 96.8176C47.3611 96.8176 50.328 99.5947 50.328 104.22V105.225H41.397C41.6713 106.068 42.6213 106.885 44.2267 106.885C44.9633 106.885 46.594 106.53 47.2494 105.961L49.2662 108.982C47.9606 110.099 45.6186 110.617 43.6577 110.617C39.5478 110.617 36.332 108.032 36.332 103.702ZM43.4951 100.544C41.9964 100.544 41.5087 101.524 41.3462 102.123H45.6745C45.5373 101.549 45.075 100.544 43.4951 100.544Z" fill="#FF41AD"/>
<path d="M58.0859 101.225C58.0859 95.4014 62.5768 91.8374 68.0787 91.8374C72.407 91.8374 74.9115 94.2337 76.0597 96.5741L71.4316 98.94C70.9134 97.8231 69.7145 96.6808 68.0838 96.6808C65.4421 96.6808 63.6742 98.6963 63.6742 101.225C63.6742 103.753 65.4421 105.768 68.0838 105.768C69.1201 105.768 70.3444 105.388 70.9134 104.951V104.296H67.5351V99.5086H76.3848V106.936C74.368 109.17 71.645 110.612 68.0787 110.612C62.5768 110.612 58.0859 107.017 58.0859 101.225Z" fill="#FF41AD"/>
<path d="M90.6787 110.286L90.0234 108.164H83.4903L82.8349 110.286H76.5964L83.2972 92.1365H90.2164L96.9172 110.286H90.6787ZM86.7568 97.5231L84.9584 103.372H88.5552L86.7568 97.5231Z" fill="#FF41AD"/>
<path d="M110.09 110.286L103.389 101.087V110.286H97.887V92.1365H103.551L109.871 100.737V92.1365H115.373V110.286H110.09Z" fill="#FF41AD"/>
<path d="M130.325 110.286V103.346H123.817V110.286H118.315V92.1366H123.817V98.5589H130.325V92.1366H135.827V110.286H130.325Z" fill="#FF41AD"/>
<path d="M137.782 101.224C137.782 95.6448 142.11 91.8372 147.724 91.8372C153.337 91.8372 157.666 95.6448 157.666 101.224C157.666 106.804 153.337 110.612 147.724 110.612C142.11 110.612 137.782 106.804 137.782 101.224ZM152.077 101.224C152.077 98.691 150.36 96.6805 147.719 96.6805C145.077 96.6805 143.36 98.696 143.36 101.224C143.36 103.753 145.077 105.768 147.719 105.768C150.36 105.768 152.077 103.753 152.077 101.224Z" fill="#FF41AD"/>
<path d="M159.618 102.833V92.1365H165.201V102.641C165.201 104.382 166.344 105.768 168.605 105.768C170.865 105.768 171.983 104.382 171.983 102.641V92.1365H177.566V102.803C177.566 107.321 174.736 110.611 168.605 110.611C162.473 110.611 159.618 107.316 159.618 102.828V102.833Z" fill="#FF41AD"/>
<path d="M179.165 107.702C179.165 106.123 180.501 104.788 182.081 104.788C183.661 104.788 184.997 106.123 184.997 107.702C184.997 109.281 183.661 110.616 182.081 110.616C180.501 110.616 179.165 109.281 179.165 107.702Z" fill="#FF41AD"/>
<mask id="mask0_1587_7361" style="mask-type:alpha" maskUnits="userSpaceOnUse" x="0" y="171" width="412" height="118">
<rect y="171.888" width="412" height="117.112" rx="20" fill="#E9F5D1"/>
</mask>
<g mask="url(#mask0_1587_7361)">
<path d="M147.13 240.591C66.0319 196.853 -9.35936 263.519 -36.9177 302.319V328.774H612.093C612.018 314.547 600.649 276.993 555.775 240.591C510.901 204.19 433.902 212.726 401.012 221.544C350.176 246.117 228.228 284.33 147.13 240.591Z" fill="#C5DFE8"/>
</g>
<mask id="mask1_1587_7361" style="mask-type:alpha" maskUnits="userSpaceOnUse" x="12" y="105" width="388" height="184">
<rect x="12" y="105.931" width="387.678" height="182.665" rx="20" fill="#F5EDD1"/>
</mask>
<g mask="url(#mask1_1587_7361)">
<path d="M181.404 324.463C182.515 329.214 179.62 333.943 174.931 335.019L134.157 344.724C129.402 345.834 124.67 342.941 123.593 338.256L102.613 250.326C101.502 245.574 104.396 240.846 109.085 239.769L164.155 226.635C168.91 225.525 173.641 228.418 174.718 233.103L181.404 324.463Z" fill="#BD7449"/>
<path d="M177.722 335.915C177.063 336.253 176.305 336.559 175.282 336.835L134.508 346.539C131.767 347.198 128.949 346.732 126.516 345.237C124.084 343.741 122.404 341.444 121.745 338.706L100.764 250.776C99.6532 246.024 101.884 241.137 106.229 238.907C106.888 238.569 107.646 238.263 108.603 238.021L163.673 224.887C169.285 223.503 175.083 227.013 176.468 232.621L176.502 232.687L183.253 324.013L183.287 324.079C184.234 328.997 182.001 333.719 177.722 335.915ZM107.886 242.131C104.989 243.618 103.568 246.842 104.33 249.943L125.277 337.807C126.112 341.536 129.877 343.844 133.609 343.01L174.449 333.271L174.515 333.238C174.944 333.101 175.504 332.896 175.965 332.66C178.862 331.173 180.317 328.014 179.555 324.913L179.521 324.847L172.77 233.521L172.703 233.39C171.704 229.828 168.072 227.618 164.375 228.518L109.436 241.585C108.908 241.69 108.413 241.861 107.886 242.131Z" fill="#432416"/>
<path d="M375.04 202.119C377.137 206.198 375.536 211.177 371.454 213.272L204.429 299.007C200.348 301.102 195.431 299.468 193.334 295.389L153.669 218.214C151.572 214.135 153.207 209.221 157.223 207.16L324.248 121.426C328.329 119.331 333.312 120.931 335.375 124.944L375.04 202.119Z" fill="#6ABF66"/>
<path d="M185.286 279.73L195.16 298.942C196.242 301.047 200.379 301.002 204.395 298.941L371.419 213.207C375.501 211.111 377.914 207.711 376.866 205.672L366.991 186.46L185.286 279.73Z" fill="#499945"/>
<path d="M205.15 300.384C200.344 302.85 194.364 300.93 191.895 296.127L152.221 218.957C149.752 214.154 151.673 208.18 156.479 205.713L323.513 119.997C328.319 117.53 334.299 119.451 336.768 124.253L376.408 201.358C377.626 203.726 377.886 206.337 377.119 208.892C376.319 211.381 374.62 213.417 372.25 214.634L205.15 300.384ZM156.719 209.415C154.389 211.359 153.632 214.741 155.086 217.57L194.726 294.675C196.417 297.964 200.404 299.244 203.696 297.555L370.729 211.838C374.021 210.149 375.302 206.166 373.611 202.877L333.937 125.706C332.246 122.417 328.259 121.136 324.967 122.826L156.617 209.218L156.719 209.415Z" fill="#0B6438"/>
<path d="M228.49 228.617C218.312 208.813 226.125 184.514 245.941 174.342C265.758 164.17 290.073 171.978 300.251 191.782C310.43 211.585 302.617 235.885 282.8 246.056C262.984 256.228 238.669 248.42 228.49 228.617Z" fill="#75E266"/>
<path d="M164.519 214.556L176.524 237.913C189.428 231.289 194.519 215.455 187.891 202.559L164.519 214.556Z" fill="#75E266"/>
<path d="M328.845 130.208L340.849 153.564C327.946 160.188 312.101 155.1 305.473 142.204L328.845 130.208Z" fill="#75E266"/>
<path d="M366.954 204.356L354.949 181C342.045 187.623 336.954 203.458 343.582 216.353L366.954 204.356Z" fill="#75E266"/>
<path d="M202.629 288.704L190.625 265.348C203.528 258.724 219.373 263.812 226.001 276.708L202.629 288.704Z" fill="#75E266"/>
<path d="M367.303 184.473C369.958 188.182 369.12 193.352 365.409 196.005L212.809 305.433C209.097 308.087 203.924 307.25 201.269 303.541L150.654 233.067C147.998 229.358 148.836 224.189 152.548 221.535L305.148 112.107C308.859 109.454 314.032 110.291 316.687 114L367.303 184.473Z" fill="#6ABF66"/>
<path d="M191.081 289.229L203.65 306.724C205.028 308.595 209.126 307.988 212.837 305.334L365.437 195.906C369.149 193.253 371.061 189.527 369.684 187.657L357.114 170.161L191.081 289.229Z" fill="#499945"/>
<path d="M212.547 307.482C208.136 309.746 202.891 308.446 200.034 304.508L149.409 234.038C146.282 229.573 147.274 223.41 151.676 220.32L304.283 110.913C304.644 110.644 305.105 110.408 305.5 110.205C309.911 107.941 315.156 109.241 318.013 113.179L368.638 183.649C370.151 185.783 370.808 188.356 370.406 190.973C370.004 193.591 368.572 195.822 366.371 197.367L213.764 306.775C213.369 306.977 212.942 307.28 212.547 307.482ZM306.92 112.968C306.657 113.103 306.394 113.238 306.164 113.439L153.557 222.847C150.602 225.028 149.917 229.038 151.97 232.059L202.595 302.529C204.544 305.187 208.162 306.074 211.059 304.588C211.322 304.453 211.585 304.317 211.815 304.117L364.422 194.709C367.378 192.527 368.062 188.518 366.01 185.497L315.385 115.027C313.501 112.335 309.883 111.448 306.92 112.968Z" fill="#0B6438"/>
<path d="M226.213 232.281C213.239 214.161 217.368 189.009 235.499 176.044C253.631 163.079 278.799 167.205 291.773 185.325C304.747 203.444 300.617 228.596 282.486 241.561C264.421 254.493 239.252 250.366 226.213 232.281Z" fill="#75E266"/>
<path d="M160.858 227.829L176.15 249.165C187.942 240.701 190.611 224.364 182.208 212.546L160.858 227.829Z" fill="#75E266"/>
<path d="M310.962 120.181L326.255 141.517C314.463 149.981 298.082 147.247 289.612 135.463L310.962 120.181Z" fill="#75E266"/>
<path d="M359.66 187.897L344.367 166.561C332.576 175.025 329.906 191.362 338.31 203.179L359.66 187.897Z" fill="#75E266"/>
<path d="M209.491 295.578L194.198 274.242C205.99 265.778 222.371 268.511 230.841 280.295L209.491 295.578Z" fill="#75E266"/>
<path d="M356.917 173.007C360.097 176.281 359.955 181.509 356.746 184.653L221.652 315.029C218.376 318.207 213.145 318.066 209.998 314.858L149.739 252.495C146.559 249.221 146.701 243.993 149.911 240.849L285.004 110.473C288.28 107.294 293.512 107.436 296.658 110.644L356.917 173.007Z" fill="#6ABF66"/>
<path d="M197.744 302.189L212.708 317.707C214.315 319.376 218.275 318.176 221.584 315.063L356.744 184.653C360.019 181.475 361.334 177.558 359.727 175.888L344.762 160.37L197.744 302.189Z" fill="#499945"/>
<path d="M220.424 317.821C216.474 319.849 211.831 319.072 208.818 315.962L148.559 253.599C146.751 251.7 145.731 249.23 145.768 246.55C145.839 243.936 146.905 241.476 148.739 239.703L283.899 109.293C284.554 108.624 285.342 108.054 286.198 107.614C290.148 105.587 294.79 106.363 297.803 109.473L358.062 171.837C359.936 173.702 360.89 176.206 360.853 178.885C360.782 181.499 359.717 183.959 357.816 185.766L222.723 316.142C222.102 316.877 221.28 317.382 220.424 317.821ZM287.652 110.443C287.059 110.748 286.566 111.084 286.075 111.585L150.982 241.961C148.361 244.471 148.208 248.707 150.819 251.358L211.078 313.721C213.087 315.85 216.336 316.344 218.904 315.026C219.496 314.721 219.989 314.385 220.48 313.884L355.574 183.508C358.195 180.998 358.348 176.762 355.737 174.111L295.478 111.748C293.469 109.619 290.285 109.092 287.652 110.443Z" fill="#0B6438"/>
<path d="M224.321 240.737C208.854 224.728 209.305 199.219 225.324 183.762C241.343 168.306 266.869 168.757 282.335 184.765C297.802 200.773 297.35 226.283 281.332 241.739C265.313 257.196 239.787 256.745 224.321 240.737Z" fill="#75E266"/>
<path d="M159.032 245.811L177.277 264.634C187.661 254.564 188.009 237.921 177.933 227.544L159.032 245.811Z" fill="#75E266"/>
<path d="M291.865 117.51L310.11 136.333C299.726 146.402 283.106 146.119 272.996 135.677L291.865 117.51Z" fill="#75E266"/>
<path d="M349.85 177.549L331.605 158.726C321.221 168.795 320.872 185.438 330.948 195.815L349.85 177.549Z" fill="#75E266"/>
<path d="M216.983 305.784L198.739 286.961C209.189 276.858 225.743 277.174 235.853 287.617L216.983 305.784Z" fill="#75E266"/>
<path d="M253.681 194.571C250.113 195.238 246.748 196.3 243.885 197.852L252.088 206.364C262.321 200.696 268.908 200.559 274.634 206.518L274.767 206.615C280.493 212.574 279.622 220.753 273.544 228.029L278.667 233.299L273.261 238.485L268.071 233.083C262.916 236.975 256.621 239.458 250.536 240.086L248.908 230.445C253.999 229.828 258.192 228.757 261.906 226.269L253.334 217.365C243.627 222.762 237.08 223.461 231.02 217.175L230.886 217.078C225.228 211.251 225.899 203.007 232.045 195.863L229.065 192.819L234.471 187.634L237.518 190.809C241.82 187.687 246.436 185.983 251.36 185.202L253.681 194.571ZM246.034 209.803L238.602 202.143C236.186 205.212 236.278 207.659 238.053 209.492L238.186 209.59C239.828 211.325 241.719 211.768 246.034 209.803ZM259.487 213.958L267.121 221.847C269.439 218.911 269.675 216.296 267.7 214.233L267.566 214.135C265.792 212.302 263.67 212.06 259.487 213.958Z" fill="#0B6438"/>
<path d="M126.703 258.997L197.279 222.77C201.953 220.371 207.733 222.227 210.134 226.898L213.448 233.346C215.848 238.017 213.991 243.793 209.317 246.192L160.862 271.064" fill="#BD7449"/>
<path d="M163.056 271.933L161.399 268.709L208.537 244.513C212.356 242.553 213.861 237.873 211.899 234.057L208.585 227.609C206.624 223.793 201.941 222.289 198.122 224.249L128.797 259.834L127.14 256.61L196.399 221.059C201.995 218.187 208.871 220.394 211.746 225.987L215.059 232.435C216.446 235.132 216.743 238.139 215.849 241.093C214.92 243.981 212.893 246.352 210.194 247.737L163.056 271.933Z" fill="#432416"/>
<path d="M209.998 226.12C211.65 229.334 210.107 233.361 206.592 235.165L195.513 240.852C191.999 242.656 187.793 241.505 186.172 238.35L184.948 235.969C183.296 232.754 184.839 228.727 188.354 226.923L199.433 221.236C202.947 219.432 207.153 220.584 208.774 223.739L209.998 226.12Z" fill="#CE8F6F"/>
<path d="M196.277 242.341C191.988 244.542 186.791 243.072 184.741 239.084L183.518 236.703C181.468 232.715 183.299 227.637 187.588 225.435L198.667 219.748C202.956 217.547 208.153 219.017 210.203 223.005L211.427 225.386C212.375 227.232 212.548 229.325 211.941 231.367C211.217 233.619 209.56 235.523 207.416 236.623L196.277 242.341ZM189.087 228.352C186.407 229.728 185.212 232.824 186.436 235.205L187.66 237.586C188.884 239.967 192.097 240.8 194.778 239.424L205.857 233.737C208.538 232.361 209.732 229.266 208.508 226.885L207.284 224.503C206.061 222.122 202.847 221.289 200.167 222.665L189.087 228.352Z" fill="#432416"/>
<path d="M50.8065 183.04C51.6181 184.619 50.9777 186.611 49.3977 187.422C47.8176 188.233 45.8584 187.659 45.013 186.014C44.2015 184.435 44.776 182.477 46.4219 181.632C48.002 180.821 49.995 181.461 50.8065 183.04Z" fill="#FFFAFA"/>
</g>
<path fill-rule="evenodd" clip-rule="evenodd" d="M63.0025 144.972C43.5622 152.832 34.1736 174.964 42.0391 194.391C49.9046 213.819 72.0506 223.201 91.4908 215.341C110.931 207.481 120.32 185.349 112.454 165.921C104.589 146.494 82.4512 137.11 63.0025 144.972Z" fill="#003D4F"/>
<path fill-rule="evenodd" clip-rule="evenodd" d="M59.1607 181.175C61.1101 180.944 62.62 180.227 63.7148 178.502L61.3717 176.744C60.749 177.702 59.9872 178.148 59.1578 178.247C57.8411 178.403 56.8786 177.677 56.7307 176.438C56.5052 174.55 57.5259 173.077 59.2017 172.878C60.1678 172.763 60.9145 173.133 61.4701 173.865L63.7953 171.552C62.8636 170.285 61.1065 169.731 59.0887 169.971C55.1728 170.436 52.7234 173.379 53.1672 177.096C53.5104 179.897 55.886 181.564 59.1607 181.175ZM72.265 179.375L71.694 177.571L67.667 178.05L66.8271 180.021L63.0651 180.469L68.5404 169.099L72.0459 168.682L75.8132 178.953L72.265 179.375ZM68.8219 175.304L70.891 175.059L70.0556 172.42L68.8219 175.304ZM80.6213 178.625C83.913 178.233 85.7838 176.399 85.5032 174.05C85.1134 170.786 80.1577 172.129 80.0189 170.967C79.9761 170.608 80.4472 170.197 81.4903 170.073C82.5163 169.951 83.573 170.085 84.4827 170.514L85.455 167.764C84.4013 167.292 82.9614 167.142 81.3882 167.329C78.0451 167.727 76.2236 169.537 76.5103 171.938C76.9021 175.219 81.8605 173.971 81.9932 175.082C82.0381 175.458 81.5793 175.755 80.6644 175.864C79.4845 176.004 78.2433 175.848 76.9817 175.305L75.9195 178.1C77.0018 178.596 78.7317 178.849 80.6213 178.625ZM94.0356 166.06L97.6009 165.636L96.7427 176.457L93.1773 176.881L93.4986 172.892L90.2069 173.283L89.8855 177.272L86.3202 177.696L87.1699 166.876L90.7353 166.452L90.4298 170.284L93.7215 169.893L94.0356 166.06Z" fill="white"/>
<path fill-rule="evenodd" clip-rule="evenodd" d="M63.686 188.367C64.7896 187.734 65.4092 186.75 65.2633 185.528C65.0726 183.93 63.6799 183.16 61.1662 183.459L55.5574 184.126L54.6989 194.947L60.8037 194.221C63.5055 193.9 65.6231 192.608 65.3436 190.267C65.2369 189.301 64.6392 188.653 63.686 188.367ZM60.6005 186.056C61.1905 185.986 61.5665 186.158 61.6186 186.594C61.6869 187.166 61.3696 187.559 60.5488 187.657L58.7362 187.872L58.8649 186.263L60.6005 186.056ZM60.712 191.71L58.412 191.984L58.5476 190.287L60.8475 190.013C61.3178 189.957 61.7461 190.132 61.8022 190.602C61.8798 191.251 61.4045 191.628 60.712 191.71ZM74.4419 192.609L73.871 190.805L69.8354 191.284L68.9956 193.256L65.2336 193.703L70.709 182.333L74.2145 181.917L77.9816 192.188L74.4419 192.609ZM71 188.546L73.0691 188.3L72.2327 185.653L71 188.546ZM84.4655 191.66C86.4149 191.428 87.9248 190.711 89.0196 188.987L86.6765 187.229C86.0539 188.187 85.292 188.633 84.4626 188.731C83.1459 188.888 82.192 188.161 82.044 186.922C81.8186 185.033 82.8404 183.569 84.5162 183.37C85.4823 183.255 86.2289 183.625 86.7845 184.357L89.1097 182.044C88.178 180.777 86.421 180.223 84.4032 180.463C80.4873 180.928 78.0378 183.871 78.4816 187.588C78.8067 190.383 81.1823 192.05 84.4655 191.66ZM101.385 178.678L96.6598 184.127L100.792 189.468L96.8163 189.94L94.2591 186.752L93.3689 187.794L93.174 190.373L89.6685 190.79L90.5269 179.969L94.0324 179.552L93.7269 183.384L97.2985 179.164L101.385 178.678Z" fill="white"/>
<path d="M67.2233 139.646C47.41 144.667 33.9226 163.838 36.4235 184.818C39.1407 207.612 59.6994 223.9 82.3393 221.205C104.979 218.509 121.133 197.85 118.416 175.057C116.336 157.609 103.793 143.966 87.8641 139.747" stroke="#36C5F3" stroke-width="8" stroke-miterlimit="10" stroke-linecap="round" stroke-linejoin="round"/>
<path d="M49.1987 130.506L68.0192 139.828L59.6322 160.556" stroke="#36C5F3" stroke-width="8" stroke-miterlimit="10" stroke-linecap="round" stroke-linejoin="round"/>
</svg>
