<svg width="1296" height="249" viewBox="0 0 1296 249" fill="none" xmlns="http://www.w3.org/2000/svg">
<rect y="12" width="1295" height="237" rx="20" fill="#D1E8F5"/>
<mask id="mask0_1535_7166" style="mask-type:alpha" maskUnits="userSpaceOnUse" x="0" y="90" width="1295" height="159">
<rect y="90" width="1295" height="159" rx="20" fill="#E9F5D1"/>
</mask>
<g mask="url(#mask0_1535_7166)">
<path d="M358.5 213.876C178.5 151.876 11.1667 246.376 -50 301.376V338.876H1390.5C1390.33 318.709 1365.1 265.476 1265.5 213.876C1165.9 162.276 995 174.376 922 186.876C809.167 221.709 538.5 275.876 358.5 213.876Z" fill="#C5DFE8"/>
</g>
<mask id="mask1_1535_7166" style="mask-type:alpha" maskUnits="userSpaceOnUse" x="408" y="1" width="526" height="248">
<rect x="408" y="1" width="526" height="248" rx="20" fill="#F5EDD1"/>
</mask>
<g mask="url(#mask1_1535_7166)">
<path d="M586.847 297.696C588.354 304.146 584.426 310.566 578.065 312.028L522.742 325.203C516.291 326.71 509.871 322.783 508.41 316.421L479.943 197.041C478.436 190.59 482.364 184.17 488.725 182.709L563.444 164.877C569.895 163.369 576.315 167.297 577.776 173.658L586.847 297.696Z" fill="#BD7449"/>
<path d="M581.851 313.244C580.958 313.703 579.929 314.118 578.541 314.493L523.218 327.668C519.5 328.562 515.676 327.93 512.375 325.9C509.075 323.869 506.795 320.75 505.902 317.032L477.435 197.652C475.928 191.201 478.955 184.566 484.85 181.538C485.744 181.079 486.772 180.664 488.071 180.335L562.79 162.503C570.404 160.624 578.271 165.389 580.15 173.004L580.196 173.093L589.355 297.084L589.401 297.174C590.686 303.852 587.657 310.262 581.851 313.244ZM487.098 185.915C483.168 187.934 481.239 192.311 482.273 196.522L510.694 315.813C511.827 320.875 516.936 324.009 521.999 322.876L577.411 309.655L577.5 309.609C578.082 309.423 578.842 309.145 579.468 308.824C583.398 306.805 585.372 302.517 584.339 298.307L584.293 298.217L575.133 174.226L575.041 174.047C573.686 169.212 568.758 166.211 563.742 167.433L489.201 185.174C488.484 185.316 487.813 185.548 487.098 185.915Z" fill="#432416"/>
<path d="M849.572 131.591C852.416 137.13 850.244 143.89 844.706 146.735L618.088 263.134C612.549 265.978 605.878 263.76 603.034 258.222L549.216 153.444C546.371 147.905 548.589 141.234 554.038 138.436L780.656 22.0364C786.195 19.1918 792.955 21.364 795.754 26.8129L849.572 131.591Z" fill="#6ABF66"/>
<path d="M592.113 236.963L605.51 263.046C606.979 265.904 612.592 265.843 618.041 263.044L844.659 146.645C850.197 143.801 853.47 139.184 852.048 136.415L838.651 110.332L592.113 236.963Z" fill="#499945"/>
<path d="M619.065 265.004C612.544 268.352 604.431 265.745 601.081 259.225L547.252 154.452C543.902 147.932 546.508 139.82 553.029 136.472L779.66 20.0964C786.181 16.7478 794.294 19.3548 797.644 25.8752L851.428 130.559C853.08 133.774 853.433 137.318 852.393 140.787C851.307 144.167 849.001 146.931 845.785 148.583L619.065 265.004ZM553.354 141.498C550.193 144.136 549.166 148.728 551.139 152.569L604.922 257.252C607.217 261.718 612.626 263.456 617.092 261.163L843.723 144.788C848.189 142.494 849.927 137.086 847.632 132.62L793.803 27.8476C791.509 23.3816 786.1 21.6436 781.633 23.9372L553.216 141.23L553.354 141.498Z" fill="#0B6438"/>
<path d="M650.733 167.567C636.923 140.68 647.524 107.69 674.411 93.8798C701.298 80.0698 734.288 90.6703 748.098 117.557C761.908 144.444 751.308 177.434 724.421 191.244C697.534 205.054 664.544 194.454 650.733 167.567Z" fill="#75E266"/>
<path d="M563.938 148.477L580.225 180.188C597.733 171.195 604.641 149.697 595.648 132.19L563.938 148.477Z" fill="#75E266"/>
<path d="M786.894 33.9594L803.182 65.6699C785.674 74.6625 764.176 67.7548 755.184 50.2471L786.894 33.9594Z" fill="#75E266"/>
<path d="M838.6 134.629L822.312 102.919C804.804 111.911 797.897 133.409 806.889 150.917L838.6 134.629Z" fill="#75E266"/>
<path d="M615.645 249.147L599.357 217.436C616.865 208.444 638.363 215.351 647.356 232.859L615.645 249.147Z" fill="#75E266"/>
<path d="M839.074 107.634C842.676 112.67 841.54 119.689 836.504 123.291L629.457 271.859C624.421 275.462 617.402 274.325 613.8 269.29L545.125 173.61C541.522 168.574 542.659 161.555 547.695 157.952L754.742 9.38438C759.778 5.78174 766.796 6.91819 770.399 11.9541L839.074 107.634Z" fill="#6ABF66"/>
<path d="M599.976 249.859L617.031 273.612C618.9 276.151 624.46 275.328 629.496 271.725L836.543 123.157C841.579 119.554 844.174 114.496 842.305 111.956L825.25 88.2035L599.976 249.859Z" fill="#499945"/>
<path d="M629.101 274.641C623.116 277.715 616 275.95 612.124 270.603L543.436 174.928C539.193 168.866 540.539 160.499 546.512 156.303L753.568 7.76278C754.058 7.39824 754.684 7.07713 755.22 6.80191C761.205 3.72861 768.321 5.49311 772.197 10.8402L840.885 106.516C842.938 109.413 843.829 112.906 843.284 116.459C842.739 120.013 840.796 123.043 837.809 125.14L630.753 273.68C630.217 273.956 629.637 274.366 629.101 274.641ZM757.147 10.5534C756.79 10.7368 756.432 10.9203 756.121 11.1931L549.064 159.733C545.054 162.695 544.126 168.139 546.91 172.241L615.598 267.916C618.243 271.525 623.152 272.73 627.082 270.711C627.44 270.528 627.797 270.344 628.108 270.071L835.165 121.531C839.175 118.569 840.104 113.126 837.319 109.024L768.631 13.3485C766.076 9.69368 761.167 8.4892 757.147 10.5534Z" fill="#0B6438"/>
<path d="M647.643 172.542C630.04 147.942 635.643 113.793 660.243 96.1902C684.844 78.5875 718.992 84.1902 736.595 108.79C754.198 133.391 748.595 167.539 723.995 185.142C699.484 202.699 665.335 197.096 647.643 172.542Z" fill="#75E266"/>
<path d="M558.97 166.498L579.719 195.465C595.717 183.974 599.339 161.793 587.937 145.748L558.97 166.498Z" fill="#75E266"/>
<path d="M762.63 20.3458L783.38 49.3132C767.381 60.8045 745.154 57.0934 733.663 41.0949L762.63 20.3458Z" fill="#75E266"/>
<path d="M828.704 112.283L807.955 83.3152C791.956 94.8065 788.334 116.987 799.736 133.032L828.704 112.283Z" fill="#75E266"/>
<path d="M624.955 258.478L604.206 229.511C620.205 218.02 642.432 221.731 653.923 237.729L624.955 258.478Z" fill="#75E266"/>
<path d="M824.983 92.0675C829.297 96.5118 829.105 103.61 824.75 107.879L641.455 284.888C637.011 289.203 629.913 289.01 625.644 284.655L543.885 199.986C539.57 195.541 539.762 188.443 544.117 184.174L727.412 7.16545C731.856 2.85064 738.954 3.0431 743.223 7.39811L824.983 92.0675Z" fill="#6ABF66"/>
<path d="M609.017 267.455L629.321 288.523C631.501 290.79 636.873 289.159 641.363 284.934L824.747 107.879C829.192 103.564 830.975 98.2454 828.795 95.9785L808.491 74.9108L609.017 267.455Z" fill="#499945"/>
<path d="M639.789 288.678C634.43 291.431 628.131 290.376 624.043 286.154L542.283 201.485C539.83 198.906 538.446 195.553 538.497 191.915C538.593 188.365 540.039 185.026 542.528 182.619L725.912 5.56429C726.8 4.65643 727.87 3.88133 729.031 3.28488C734.39 0.532039 740.689 1.58649 744.777 5.80873L826.537 90.4782C829.079 93.0105 830.374 96.4097 830.323 100.048C830.227 103.597 828.781 106.936 826.203 109.39L642.908 286.398C642.066 287.396 640.95 288.081 639.789 288.678ZM731.004 7.12587C730.2 7.53879 729.531 7.99515 728.865 8.67605L545.57 185.685C542.014 189.092 541.807 194.843 545.349 198.442L627.109 283.112C629.835 286.001 634.243 286.672 637.727 284.883C638.531 284.47 639.2 284.013 639.866 283.332L823.161 106.324C826.716 102.917 826.924 97.1658 823.381 93.5664L741.622 8.89693C738.896 6.00725 734.577 5.29064 731.004 7.12587Z" fill="#0B6438"/>
<path d="M645.076 184.022C624.091 162.288 624.704 127.654 646.438 106.669C668.172 85.6846 702.805 86.2969 723.79 108.031C744.775 129.765 744.163 164.398 722.429 185.383C700.695 206.368 666.061 205.756 645.076 184.022Z" fill="#75E266"/>
<path d="M556.493 190.911L581.247 216.467C595.336 202.796 595.809 180.2 582.138 166.111L556.493 190.911Z" fill="#75E266"/>
<path d="M736.721 16.7201L761.475 42.2757C747.386 55.9469 724.836 55.5628 711.119 41.3849L736.721 16.7201Z" fill="#75E266"/>
<path d="M815.393 98.2337L790.639 72.6781C776.551 86.3494 776.077 108.945 789.748 123.034L815.393 98.2337Z" fill="#75E266"/>
<path d="M635.121 272.335L610.367 246.78C624.545 233.063 647.006 233.493 660.723 247.671L635.121 272.335Z" fill="#75E266"/>
<path d="M684.912 121.344C680.071 122.25 675.505 123.691 671.621 125.799L682.751 137.355C696.636 129.66 705.572 129.474 713.341 137.564L713.522 137.696C721.291 145.786 720.109 156.891 711.863 166.77L718.813 173.925L711.479 180.965L704.437 173.631C697.443 178.915 688.901 182.286 680.646 183.138L678.437 170.049C685.344 169.211 691.033 167.758 696.071 164.38L684.441 152.291C671.271 159.618 662.388 160.567 654.165 152.034L653.984 151.901C646.307 143.99 647.218 132.798 655.556 123.098L651.514 118.965L658.848 111.925L662.982 116.237C668.82 111.997 675.083 109.684 681.764 108.624L684.912 121.344ZM674.538 142.024L664.453 131.624C661.175 135.791 661.301 139.113 663.708 141.602L663.889 141.735C666.116 144.091 668.683 144.692 674.538 142.024ZM692.79 147.665L703.147 158.376C706.293 154.39 706.613 150.839 703.933 148.039L703.752 147.906C701.344 145.417 698.466 145.089 692.79 147.665Z" fill="#0B6438"/>
<path d="M512.629 208.813L608.386 159.629C614.728 156.372 622.57 158.891 625.827 165.233L630.323 173.987C633.581 180.329 631.061 188.171 624.719 191.429L558.976 225.197" fill="#BD7449"/>
<path d="M561.953 226.377L559.705 222L623.662 189.149C628.842 186.488 630.884 180.134 628.223 174.953L623.727 166.199C621.066 161.018 614.711 158.976 609.53 161.637L515.471 209.95L513.223 205.573L607.193 157.306C614.785 153.406 624.115 156.404 628.015 163.997L632.511 172.751C634.392 176.413 634.796 180.495 633.582 184.506C632.322 188.427 629.572 191.645 625.91 193.526L561.953 226.377Z" fill="#432416"/>
<path d="M625.644 164.177C627.885 168.541 625.791 174.009 621.023 176.458L605.99 184.179C601.222 186.629 595.516 185.065 593.316 180.782L591.656 177.549C589.414 173.185 591.508 167.717 596.277 165.268L611.309 157.547C616.077 155.097 621.783 156.661 623.983 160.944L625.644 164.177Z" fill="#CE8F6F"/>
<path d="M607.027 186.2C601.208 189.189 594.157 187.193 591.375 181.779L589.715 178.546C586.934 173.131 589.419 166.237 595.238 163.248L610.27 155.527C616.089 152.538 623.14 154.534 625.922 159.949L627.582 163.181C628.869 165.687 629.103 168.529 628.28 171.301C627.297 174.359 625.05 176.943 622.14 178.438L607.027 186.2ZM597.272 167.208C593.635 169.076 592.014 173.279 593.675 176.512L595.335 179.745C596.996 182.977 601.356 184.108 604.993 182.24L620.025 174.519C623.662 172.651 625.282 168.448 623.622 165.215L621.962 161.983C620.301 158.75 615.941 157.619 612.304 159.487L597.272 167.208Z" fill="#432416"/>
<path d="M409.653 105.689C410.754 107.833 409.885 110.537 407.741 111.638C405.597 112.739 402.939 111.96 401.792 109.726C400.691 107.583 401.471 104.924 403.704 103.777C405.848 102.676 408.552 103.545 409.653 105.689Z" fill="#FFFAFA"/>
</g>
<path fill-rule="evenodd" clip-rule="evenodd" d="M348.871 68.3672L349.102 68.2984C341.189 67.3575 334.627 61.6777 332.61 53.9403L331.671 50.434L331.409 53.8124C330.805 61.7659 325.408 68.5642 317.774 70.9284L317.542 70.9972C325.455 71.9381 332.018 77.6179 334.035 85.3553L334.974 88.8615L335.236 85.4832C335.838 77.5061 341.236 70.7313 348.871 68.3672Z" fill="#36C5F3"/>
<path fill-rule="evenodd" clip-rule="evenodd" d="M329.562 210.597L329.701 210.56C324.963 209.995 321.059 206.593 319.827 201.972L319.277 199.857L319.128 201.869C318.756 206.638 315.535 210.691 310.978 212.108L310.838 212.144C315.577 212.71 319.48 216.111 320.712 220.732L321.263 222.847L321.411 220.835C321.76 216.069 324.979 211.992 329.562 210.597Z" fill="#36C5F3"/>
<path fill-rule="evenodd" clip-rule="evenodd" d="M408.562 139.597L408.701 139.56C403.963 138.995 400.059 135.593 398.827 130.972L398.277 128.857L398.128 130.869C397.779 135.635 394.535 139.691 389.978 141.108L389.838 141.144C394.577 141.71 398.48 145.111 399.712 149.732L400.263 151.847L400.411 149.835C400.784 145.067 404.005 141.013 408.562 139.597Z" fill="#36C5F3"/>
<path fill-rule="evenodd" clip-rule="evenodd" d="M1110.04 67.9523C1070.29 84.037 1051.09 129.325 1067.17 169.08C1083.26 208.835 1128.55 228.035 1168.3 211.95C1208.06 195.865 1227.26 150.577 1211.17 110.822C1195.09 71.0671 1149.82 51.8654 1110.04 67.9523Z" fill="#003D4F"/>
<path fill-rule="evenodd" clip-rule="evenodd" d="M1102.19 142.037C1106.17 141.562 1109.26 140.096 1111.5 136.567L1106.71 132.97C1105.44 134.93 1103.88 135.842 1102.18 136.044C1099.49 136.364 1097.52 134.878 1097.22 132.343C1096.76 128.479 1098.84 125.465 1102.27 125.057C1104.25 124.822 1105.77 125.58 1106.91 127.077L1111.67 122.344C1109.76 119.751 1106.17 118.618 1102.04 119.109C1094.03 120.061 1089.02 126.083 1089.93 133.688C1090.63 139.421 1095.49 142.833 1102.19 142.037ZM1128.99 138.353L1127.82 134.662L1119.58 135.641L1117.87 139.676L1110.17 140.59L1121.37 117.324L1128.54 116.472L1136.24 137.49L1128.99 138.353ZM1121.94 130.023L1126.18 129.52L1124.47 124.12L1121.94 130.023ZM1146.07 136.817C1152.81 136.017 1156.63 132.264 1156.06 127.455C1155.26 120.777 1145.13 123.525 1144.84 121.147C1144.75 120.412 1145.72 119.571 1147.85 119.317C1149.95 119.068 1152.11 119.343 1153.97 120.221L1155.96 114.594C1153.8 113.627 1150.86 113.321 1147.64 113.703C1140.81 114.516 1137.08 118.222 1137.67 123.135C1138.47 129.849 1148.61 127.295 1148.88 129.568C1148.97 130.337 1148.03 130.945 1146.16 131.168C1143.75 131.455 1141.21 131.136 1138.63 130.024L1136.46 135.744C1138.67 136.758 1142.21 137.277 1146.07 136.817ZM1173.51 111.106L1180.8 110.239L1179.04 132.382L1171.75 133.249L1172.41 125.085L1165.68 125.886L1165.02 134.05L1157.73 134.917L1159.47 112.776L1166.76 111.909L1166.13 119.75L1172.86 118.949L1173.51 111.106Z" fill="white"/>
<path fill-rule="evenodd" clip-rule="evenodd" d="M1111.44 156.753C1113.7 155.456 1114.97 153.444 1114.67 150.943C1114.28 147.674 1111.43 146.098 1106.29 146.709L1094.82 148.073L1093.06 170.217L1105.55 168.732C1111.07 168.075 1115.4 165.432 1114.83 160.641C1114.61 158.663 1113.39 157.337 1111.44 156.753ZM1105.13 152.024C1106.34 151.881 1107.11 152.233 1107.21 153.124C1107.35 154.296 1106.7 155.1 1105.03 155.3L1101.32 155.741L1101.58 152.447L1105.13 152.024ZM1105.36 163.594L1100.66 164.153L1100.93 160.68L1105.64 160.121C1106.6 160.007 1107.47 160.363 1107.59 161.325C1107.75 162.654 1106.78 163.426 1105.36 163.594ZM1133.44 165.432L1132.27 161.741L1124.02 162.722L1122.3 166.757L1114.61 167.672L1125.8 144.406L1132.97 143.553L1140.68 164.571L1133.44 165.432ZM1126.4 157.12L1130.63 156.616L1128.92 151.199L1126.4 157.12ZM1153.93 163.491C1157.92 163.016 1161.01 161.55 1163.25 158.021L1158.46 154.424C1157.18 156.384 1155.63 157.296 1153.93 157.498C1151.24 157.818 1149.29 156.33 1148.98 153.795C1148.52 149.931 1150.61 146.934 1154.04 146.526C1156.01 146.291 1157.54 147.05 1158.68 148.546L1163.43 143.813C1161.53 141.22 1157.93 140.087 1153.81 140.578C1145.8 141.531 1140.79 147.553 1141.7 155.158C1142.36 160.877 1147.22 164.289 1153.93 163.491ZM1188.54 136.926L1178.87 148.077L1187.32 159.005L1179.19 159.972L1173.96 153.448L1172.14 155.58L1171.74 160.858L1164.57 161.711L1166.33 139.568L1173.5 138.715L1172.87 146.556L1180.18 137.92L1188.54 136.926Z" fill="white"/>
<path d="M1118.67 57.0535C1078.16 67.3297 1050.58 106.559 1055.69 149.491C1061.25 196.133 1103.29 229.465 1149.59 223.949C1195.88 218.434 1228.92 176.158 1223.36 129.516C1219.11 93.8125 1193.46 65.8945 1160.88 57.2613" stroke="#36C5F3" stroke-width="8" stroke-miterlimit="10" stroke-linecap="round" stroke-linejoin="round"/>
<path d="M1081.81 38.3512L1120.3 57.4257L1103.15 99.8418" stroke="#36C5F3" stroke-width="8" stroke-miterlimit="10" stroke-linecap="round" stroke-linejoin="round"/>
<path d="M98.6582 104.049V79.407H106.123V104.049H98.6582Z" fill="#FF41AD"/>
<path d="M126.664 104.049L117.572 91.5588V104.049H110.107V79.4068H117.793L126.368 91.0832V79.4068H133.832V104.049H126.664Z" fill="#FF41AD"/>
<path d="M137.815 104.048V79.4067H148.823C156.585 79.4067 162.347 83.8388 162.347 91.7103C162.347 99.5819 156.585 104.048 148.858 104.048H137.809H137.815ZM154.772 91.7103C154.772 88.388 152.849 85.9066 148.858 85.9066H145.273V97.5485H148.823C152.552 97.5485 154.772 94.8121 154.772 91.7103Z" fill="#FF41AD"/>
<path d="M165.01 104.049V79.4071H172.475V104.049H165.01Z" fill="#FF41AD"/>
<path d="M175.125 91.7448C175.125 84.1351 180.963 79 188.683 79C195.149 79 198.402 82.7704 199.877 86.1685L193.446 89.16C192.819 87.2369 190.896 85.5757 188.676 85.5757C185.092 85.5757 182.693 88.3122 182.693 91.7448C182.693 95.1774 185.092 97.9138 188.676 97.9138C190.896 97.9138 192.812 96.2526 193.446 94.3296L199.877 97.2866C198.436 100.574 195.149 104.49 188.683 104.49C180.963 104.49 175.125 99.3199 175.125 91.7448Z" fill="#FF41AD"/>
<path d="M200.881 91.7453C200.881 84.1701 206.754 79.0005 214.37 79.0005C221.987 79.0005 227.859 84.1701 227.859 91.7453C227.859 99.3205 221.987 104.49 214.37 104.49C206.754 104.49 200.881 99.3205 200.881 91.7453ZM220.277 91.7453C220.277 88.3058 217.947 85.5763 214.363 85.5763C210.779 85.5763 208.449 88.3127 208.449 91.7453C208.449 95.1779 210.779 97.9143 214.363 97.9143C217.947 97.9143 220.277 95.1779 220.277 91.7453Z" fill="#FF41AD"/>
<path d="M230.51 93.93V79.4069H238.085V93.6681C238.085 96.0323 239.636 97.914 242.703 97.914C245.77 97.914 247.287 96.0323 247.287 93.6681V79.4069H254.862V93.8887C254.862 100.023 251.023 104.49 242.703 104.49C234.384 104.49 230.51 100.016 230.51 93.9231V93.93Z" fill="#FF41AD"/>
<path d="M260.541 109.48L257.846 107.302C259.031 106.785 260.727 105.158 261.209 103.752C261.023 103.828 260.658 103.897 260.251 103.897C258.48 103.897 257.039 102.532 257.039 100.457C257.039 98.3825 258.811 96.5766 260.878 96.5766C263.132 96.5766 265.166 98.3136 265.166 101.346C265.166 104.6 263.429 107.44 260.547 109.473L260.541 109.48Z" fill="#FF41AD"/>
<path d="M115.1 139.891L114.211 137.01H105.347L104.457 139.891H96L105.092 115.25H114.48L123.571 139.891H115.107H115.1ZM109.779 122.563L107.339 130.503H112.219L109.779 122.563Z" fill="#FF41AD"/>
<path d="M123.002 136.424L126.883 130.882C128.73 132.654 131.501 134.06 134.823 134.06C136.229 134.06 137.56 133.687 137.56 132.729C137.56 130.365 123.815 132.764 123.815 123.052C123.815 118.875 127.289 114.884 134.051 114.884C138.076 114.884 141.702 116.028 144.507 118.323L140.517 123.61C138.373 121.983 135.602 121.17 133.272 121.17C131.797 121.17 131.39 121.653 131.39 122.28C131.39 124.61 145.1 122.611 145.1 131.778C145.1 137.21 141.075 140.353 134.458 140.353C129.212 140.353 125.628 138.802 123.002 136.438V136.424Z" fill="#FF41AD"/>
<path d="M145.648 136.424L149.529 130.883C151.376 132.654 154.147 134.06 157.47 134.06C158.876 134.06 160.206 133.688 160.206 132.73C160.206 130.366 146.462 132.764 146.462 123.052C146.462 118.875 149.936 114.884 156.698 114.884C160.723 114.884 164.349 116.029 167.154 118.324L163.163 123.611C161.019 121.984 158.248 121.171 155.919 121.171C154.444 121.171 154.037 121.653 154.037 122.28C154.037 124.61 167.747 122.611 167.747 131.779C167.747 137.21 163.721 140.353 157.104 140.353C151.859 140.353 148.275 138.802 145.648 136.438V136.424Z" fill="#FF41AD"/>
<path d="M168.846 127.587C168.846 120.012 174.718 114.843 182.335 114.843C189.951 114.843 195.824 120.012 195.824 127.587C195.824 135.163 189.951 140.332 182.335 140.332C174.718 140.332 168.846 135.163 168.846 127.587ZM188.242 127.587C188.242 124.148 185.912 121.418 182.328 121.418C178.744 121.418 176.414 124.155 176.414 127.587C176.414 131.02 178.744 133.756 182.328 133.756C185.912 133.756 188.242 131.02 188.242 127.587Z" fill="#FF41AD"/>
<path d="M197.148 127.587C197.148 119.978 202.987 114.843 210.707 114.843C217.172 114.843 220.425 118.613 221.9 122.011L215.469 125.003C214.842 123.08 212.919 121.418 210.7 121.418C207.115 121.418 204.717 124.155 204.717 127.587C204.717 131.02 207.115 133.756 210.7 133.756C212.919 133.756 214.835 132.095 215.469 130.172L221.9 133.129C220.46 136.417 217.172 140.332 210.707 140.332C202.987 140.332 197.148 135.163 197.148 127.587Z" fill="#FF41AD"/>
<path d="M224.223 139.891V115.249H231.688V139.891H224.223Z" fill="#FF41AD"/>
<path d="M234.35 127.587C234.35 120.012 240.222 114.843 247.839 114.843C255.455 114.843 261.328 120.012 261.328 127.587C261.328 135.163 255.455 140.332 247.839 140.332C240.222 140.332 234.35 135.163 234.35 127.587ZM253.746 127.587C253.746 124.148 251.416 121.418 247.832 121.418C244.248 121.418 241.918 124.155 241.918 127.587C241.918 131.02 244.248 133.757 247.832 133.757C251.416 133.757 253.746 131.02 253.746 127.587Z" fill="#FF41AD"/>
<path d="M263.975 129.773V115.25H271.55V129.511C271.55 131.875 273.101 133.757 276.168 133.757C279.235 133.757 280.752 131.875 280.752 129.511V115.25H288.327V129.731C288.327 135.866 284.488 140.332 276.168 140.332C267.848 140.332 263.975 135.859 263.975 129.766V129.773Z" fill="#FF41AD"/>
<path d="M97.2949 166.794C97.2949 161.624 101.251 157.447 107.014 157.447C112.259 157.447 116.285 161.218 116.285 167.497V168.862H104.167C104.539 170.006 105.828 171.116 108.006 171.116C109.006 171.116 111.218 170.633 112.108 169.861L114.844 173.962C113.073 175.479 109.895 176.182 107.234 176.182C101.658 176.182 97.2949 172.673 97.2949 166.794ZM107.014 162.507C104.98 162.507 104.319 163.837 104.098 164.65H109.971C109.785 163.871 109.157 162.507 107.014 162.507Z" fill="#FF41AD"/>
<path d="M126.811 163.43C126.811 155.524 132.904 150.686 140.369 150.686C146.241 150.686 149.639 153.939 151.197 157.116L144.918 160.329C144.215 158.812 142.588 157.261 140.376 157.261C136.791 157.261 134.393 159.998 134.393 163.43C134.393 166.863 136.791 169.599 140.376 169.599C141.782 169.599 143.443 169.082 144.215 168.49V167.6H139.631V161.101H151.638V171.185C148.902 174.218 145.207 176.175 140.369 176.175C132.904 176.175 126.811 171.295 126.811 163.43Z" fill="#FF41AD"/>
<path d="M171.033 175.733L170.143 172.852H161.279L160.39 175.733H151.926L161.017 151.092H170.405L179.497 175.733H171.033ZM165.711 158.405L163.271 166.345H168.151L165.711 158.405Z" fill="#FF41AD"/>
<path d="M197.369 175.733L188.277 163.244V175.733H180.812V151.092H188.498L197.073 162.768V151.092H204.537V175.733H197.369Z" fill="#FF41AD"/>
<path d="M224.824 175.734V166.311H215.994V175.734H208.529V151.092H215.994V159.811H224.824V151.092H232.289V175.734H224.824Z" fill="#FF41AD"/>
<path d="M234.941 163.43C234.941 155.855 240.814 150.685 248.431 150.685C256.047 150.685 261.92 155.855 261.92 163.43C261.92 171.005 256.047 176.175 248.431 176.175C240.814 176.175 234.941 171.005 234.941 163.43ZM254.338 163.43C254.338 159.99 252.008 157.261 248.424 157.261C244.839 157.261 242.51 159.997 242.51 163.43C242.51 166.863 244.839 169.599 248.424 169.599C252.008 169.599 254.338 166.863 254.338 163.43Z" fill="#FF41AD"/>
<path d="M264.568 165.615V151.092H272.144V165.353C272.144 167.717 273.694 169.599 276.762 169.599C279.829 169.599 281.345 167.717 281.345 165.353V151.092H288.921V165.574C288.921 171.708 285.081 176.175 276.762 176.175C268.442 176.175 264.568 171.701 264.568 165.608V165.615Z" fill="#FF41AD"/>
<path d="M291.09 172.225C291.09 170.081 292.903 168.269 295.046 168.269C297.19 168.269 299.003 170.081 299.003 172.225C299.003 174.369 297.19 176.181 295.046 176.181C292.903 176.181 291.09 174.369 291.09 172.225Z" fill="#FF41AD"/>
</svg>
